<svg xmlns="http://www.w3.org/2000/svg" width="140" height="140" viewBox="78.095 75.6 140 140"><path d="M149.141 137.656v11.192h-1.972v-8.909l-1.919.581-.482-1.229 3.035-1.63h1.338v-.005zm10.918 1.351c.369.487.662 1.106.879 1.867.218.761.326 1.612.326 2.552 0 .979-.108 1.825-.326 2.548-.217.723-.506 1.322-.864 1.795-.359.479-.775.833-1.248 1.064-.473.236-.964.35-1.475.35a2.848 2.848 0 0 1-1.503-.426c-.473-.283-.88-.681-1.234-1.195-.35-.516-.628-1.13-.831-1.853a8.714 8.714 0 0 1-.308-2.387c0-.87.104-1.668.316-2.396.213-.723.491-1.347.846-1.867s.767-.926 1.234-1.215a2.78 2.78 0 0 1 1.483-.435c.298 0 .572.033.823.099.25.066.486.17.704.303.218.132.425.297.614.496.19.204.379.436.564.7zm-1.305 1.267a2.127 2.127 0 0 0-.581-.818 1.243 1.243 0 0 0-.809-.297c-.265 0-.516.094-.752.283-.236.189-.443.458-.628.804-.18.345-.326.761-.436 1.243a7.405 7.405 0 0 0-.16 1.612c0 .104.005.222.01.35.005.127.014.26.023.392l.028.383c.01.123.019.227.033.307l3.272-4.259zm-2.769 6.003c.146.345.341.619.581.818.241.198.511.298.809.298.265 0 .515-.096.751-.284s.445-.453.629-.799c.18-.34.326-.756.435-1.238a7.294 7.294 0 0 0 .161-1.607c0-.104-.005-.222-.01-.354-.004-.132-.014-.265-.023-.393l-.028-.378a13.012 13.012 0 0 0-.028-.312l-3.277 4.249zm13.522-7.27c.369.487.662 1.106.88 1.867.217.761.325 1.612.325 2.552 0 .979-.108 1.825-.325 2.548-.218.723-.506 1.322-.865 1.795-.359.479-.775.833-1.248 1.064-.473.236-.964.35-1.475.35a2.848 2.848 0 0 1-1.503-.426c-.473-.283-.879-.681-1.233-1.195-.351-.516-.629-1.13-.832-1.853a8.753 8.753 0 0 1-.308-2.387c0-.87.104-1.668.316-2.396.213-.723.492-1.347.847-1.867s.766-.926 1.233-1.215a2.78 2.78 0 0 1 1.484-.435c.298 0 .572.033.822.099s.486.17.704.303c.218.132.426.297.615.496.19.204.379.436.563.7zm-1.304 1.267a2.14 2.14 0 0 0-.582-.818 1.243 1.243 0 0 0-.809-.297c-.264 0-.515.094-.751.283-.236.189-.444.458-.629.804-.18.345-.326.761-.435 1.243a7.402 7.402 0 0 0-.161 1.612c0 .104.005.222.01.35.005.127.014.26.023.392l.028.383c.01.123.02.227.033.307l3.273-4.259zm-2.775 6.003c.146.345.341.619.582.818.241.198.51.298.809.298.264 0 .515-.096.751-.284s.444-.453.629-.799c.18-.34.326-.756.435-1.238a7.355 7.355 0 0 0 .161-1.607c0-.104-.005-.222-.01-.354s-.015-.265-.023-.393c-.01-.132-.02-.255-.028-.378l-.029-.312-3.277 4.249zm12.054-8.621v11.192h-1.972v-8.909l-1.919.581-.482-1.229 3.035-1.63h1.338v-.005zm10.923 1.351c.368.487.661 1.106.879 1.867s.326 1.612.326 2.552c0 .979-.108 1.825-.326 2.548-.218.723-.505 1.322-.865 1.795-.358.479-.774.833-1.247 1.064a3.26 3.26 0 0 1-1.475.35 2.848 2.848 0 0 1-1.503-.426c-.473-.283-.88-.681-1.234-1.195-.35-.516-.629-1.13-.832-1.853a8.754 8.754 0 0 1-.307-2.387c0-.87.104-1.668.316-2.396.213-.723.491-1.347.846-1.867s.766-.926 1.234-1.215a2.78 2.78 0 0 1 1.483-.435c.299 0 .572.033.823.099.25.066.486.17.704.303.217.132.426.297.614.496.186.204.374.436.564.7zm-1.31 1.267a2.127 2.127 0 0 0-.581-.818 1.243 1.243 0 0 0-.809-.297c-.265 0-.516.094-.752.283-.236.189-.443.458-.628.804-.18.345-.326.761-.436 1.243a7.405 7.405 0 0 0-.16 1.612c0 .104.005.222.01.35.005.127.015.26.023.392l.028.383c.01.123.019.227.033.307l3.272-4.259zm-2.77 6.003c.146.345.341.619.581.818.241.198.511.298.809.298.265 0 .515-.096.751-.284s.445-.453.629-.799c.18-.34.326-.756.435-1.238a7.294 7.294 0 0 0 .161-1.607c0-.104-.005-.222-.01-.354-.004-.132-.014-.265-.023-.393l-.028-.378a13.012 13.012 0 0 0-.028-.312l-3.277 4.249zm13.528-7.27c.369.487.662 1.106.879 1.867.218.761.327 1.612.327 2.552 0 .979-.109 1.825-.327 2.548-.217.723-.506 1.322-.864 1.795-.359.479-.775.833-1.248 1.064-.473.236-.964.35-1.475.35a2.848 2.848 0 0 1-1.503-.426c-.473-.283-.879-.681-1.233-1.195-.351-.516-.629-1.13-.832-1.853a8.714 8.714 0 0 1-.308-2.387c0-.87.104-1.668.316-2.396.213-.723.492-1.347.847-1.867s.766-.926 1.233-1.215c.468-.288.96-.435 1.484-.435.298 0 .571.033.822.099s.487.17.704.303c.218.132.426.297.614.496.186.204.375.436.564.7zm-1.309 1.267a2.14 2.14 0 0 0-.582-.818 1.243 1.243 0 0 0-.809-.297c-.264 0-.515.094-.751.283-.236.189-.444.458-.629.804-.18.345-.326.761-.435 1.243a7.402 7.402 0 0 0-.161 1.612c0 .104.005.222.01.35.005.127.015.26.023.392l.028.383c.01.123.02.227.033.307l3.273-4.259zm-2.77 6.003c.146.345.341.619.582.818.24.198.51.298.808.298.265 0 .516-.096.752-.284s.444-.453.629-.799c.179-.34.325-.756.435-1.238.108-.482.16-1.016.16-1.607 0-.104-.004-.222-.009-.354s-.015-.265-.024-.393l-.028-.378c-.009-.118-.019-.222-.027-.312l-3.278 4.249zm12.052-8.621v11.192h-1.971v-8.909l-1.919.581-.482-1.229 3.035-1.63h1.337v-.005zM115.198 95.116V91.33h3.469v3.786h-3.469zm3.489 22.031V97.536h3.323v19.606h-3.323v.005zm3.398-22.031V91.33h3.469v3.786h-3.469z"/><path d="M145.025 75.6h-49.86c-9.412 0-17.07 7.279-17.07 16.227v23.545c0 8.948 7.658 16.229 17.07 16.229h3.93v14a3 3 0 0 0 5.306 1.921l13.267-15.921h11.429v-6h-12.834c-.891 0-1.734.396-2.305 1.079l-8.861 10.635V125.6h-9.93c-6.104 0-11.07-4.589-11.07-10.229V91.827c0-5.639 4.966-10.227 11.07-10.227h49.859c6.104 0 11.07 4.587 11.07 10.227v23.545c0 5.618-4.929 10.189-11 10.225v6c9.38-.037 17-7.299 17-16.225V91.827c-.001-8.948-7.659-16.227-17.071-16.227z"/><path d="M201.025 110.6h-33.93v6h33.93c6.104 0 11.07 4.587 11.07 10.227v23.545c0 5.64-4.966 10.229-11.07 10.229h-9.93v11.714l-8.861-10.635a3 3 0 0 0-2.305-1.079h-28.764c-6.104 0-11.07-4.589-11.07-10.229v-23.545c0-5.617 4.929-10.188 11-10.223v-6c-9.38.037-17 7.298-17 16.223v23.545c0 8.948 7.658 16.229 17.07 16.229h27.358l13.267 15.921a3.001 3.001 0 0 0 5.306-1.921v-14h3.93c9.412 0 17.07-7.28 17.07-16.229v-23.545c-.001-8.948-7.659-16.227-17.071-16.227z"/><path fill="#195084" d="M84.57 181.557h9.066v22.786h4.958v3.37h-14.27v-3.37h4.958v-19.417H84.57v-3.369zm19.455 10.615c1.867-1.966 4.15-2.954 6.849-2.954 1.148 0 2.174.146 3.086.435a5.822 5.822 0 0 1 2.311 1.353c.629.614 1.116 1.39 1.456 2.325.34.94.51 2.061.51 3.36v11.014h-4.146v-1.626a7.684 7.684 0 0 1-2.429 1.531 7.525 7.525 0 0 1-2.831.567c-1.059 0-1.976-.143-2.756-.426-.775-.283-1.418-.666-1.919-1.144a4.495 4.495 0 0 1-1.125-1.683 5.616 5.616 0 0 1-.369-2.023c0-.931.199-1.786.596-2.566.397-.775.983-1.446 1.749-2.004.77-.563 1.72-1.002 2.85-1.314 1.129-.316 2.434-.473 3.909-.473h2.292c-.024-1.375-.303-2.373-.832-2.991-.529-.619-1.361-.927-2.496-.927-1.475 0-2.978.804-4.504 2.405l-2.201-2.859zm8.555 7.629c-1.135-.023-2.071.042-2.803.198-.733.156-1.305.379-1.721.653-.416.273-.704.595-.86.954a2.678 2.678 0 0 0-.236 1.068c0 .303.071.586.208.851s.326.496.567.69c.241.193.52.354.841.473.322.123.667.18 1.031.18.591 0 1.125-.104 1.598-.313a5.26 5.26 0 0 0 1.238-.746c.354-.288.652-.591.889-.908.241-.316.416-.586.529-.813.099-.188.174-.467.227-.841.052-.373.076-.841.076-1.408l-1.584-.038zm10.238 7.908v-18.094h4.372v1.853a7.394 7.394 0 0 1 2.193-1.636c.832-.406 1.678-.614 2.539-.614.907 0 1.734.138 2.481.416.747.279 1.38.719 1.9 1.314.524.601.926 1.375 1.21 2.33s.425 2.104.425 3.455v10.976h-4.277v-10.938c0-.693-.062-1.294-.189-1.795-.127-.506-.302-.917-.529-1.239a2.112 2.112 0 0 0-.813-.709 2.433 2.433 0 0 0-1.059-.227 3.637 3.637 0 0 0-2.75 1.229 4.436 4.436 0 0 0-.822 1.408 5.173 5.173 0 0 0-.303 1.805v10.466h-4.378zm26.114-18.637c1.579 0 2.922.426 4.032 1.267a6.786 6.786 0 0 1 1.834-.86 7.618 7.618 0 0 1 2.155-.292h1.248l.567 3.691c-.241-.038-.478-.071-.709-.095s-.444-.052-.624-.076c-.18-.023-.336-.042-.463-.056a2.409 2.409 0 0 0-.208-.02c-.544 0-1.098.108-1.664.321.175.401.326.817.444 1.238s.18.851.18 1.276a5.6 5.6 0 0 1-.539 2.425 6.451 6.451 0 0 1-1.465 1.985 7.024 7.024 0 0 1-2.165 1.342 7.18 7.18 0 0 1-2.661.492c-.251 0-.51-.015-.775-.038a3.676 3.676 0 0 1-.813-.17 4.81 4.81 0 0 0-.841.699 1.117 1.117 0 0 0-.312.775c0 .354.185.591.548.709.364.118.841.18 1.418.18.439 0 .903-.02 1.38-.057.478-.038.917-.058 1.305-.058 1.276 0 2.354.118 3.247.36.889.24 1.607.576 2.156 1.011.548.436.945.95 1.19 1.541.246.591.369 1.248.369 1.967a4.72 4.72 0 0 1-.521 2.146c-.345.685-.864 1.305-1.56 1.844-.695.543-1.564.974-2.609 1.295-1.049.321-2.269.482-3.673.482-1.465 0-2.717-.123-3.767-.369s-1.905-.581-2.571-1.002c-.667-.426-1.163-.917-1.475-1.475a3.594 3.594 0 0 1-.473-1.787c0-.316.057-.638.17-.974.114-.336.274-.661.482-.974.208-.312.458-.61.747-.889.288-.279.605-.524.945-.737-.439-.316-.742-.69-.907-1.125a3.66 3.66 0 0 1-.246-1.314c0-.604.208-1.214.624-1.833a8.086 8.086 0 0 1 1.588-1.722 4.319 4.319 0 0 1-1.04-.888c-.303-.354-.563-.733-.775-1.135s-.378-.827-.492-1.267a5.312 5.312 0 0 1-.17-1.323c0-.908.194-1.759.577-2.553s.898-1.483 1.541-2.07a7.334 7.334 0 0 1 2.207-1.38 6.668 6.668 0 0 1 2.564-.507zm2.596 18.26c-.936 0-1.796-.006-2.59-.02a47.499 47.499 0 0 1-2.478-.113c-.468.278-.808.6-1.03.974-.223.373-.331.723-.331 1.05 0 .363.118.671.35.917.231.245.553.448.955.604.402.156.87.27 1.399.341.529.07 1.092.104 1.683.104.619 0 1.187-.052 1.701-.161.516-.108.965-.259 1.343-.453s.676-.431.889-.7.335-.576.358-.916a1.69 1.69 0 0 0-.566-1.173c-.342-.304-.904-.454-1.683-.454zm-2.671-14.933c-.392 0-.751.071-1.087.209-.335.137-.628.34-.878.596a2.863 2.863 0 0 0-.596.945 3.478 3.478 0 0 0-.217 1.275c0 .401.066.785.199 1.135s.317.662.558.927c.241.264.53.477.87.633.34.156.728.236 1.153.236.444 0 .837-.08 1.191-.236s.652-.369.898-.633c.245-.265.43-.577.558-.927.127-.35.188-.733.188-1.135s-.062-.789-.188-1.153a2.912 2.912 0 0 0-.558-.964 2.705 2.705 0 0 0-.898-.662 2.851 2.851 0 0 0-1.193-.246zm12.871 1.121h14.534v3.54h-14.534v-3.54zm33.989-3.899v15.914c0 .326.033.676.104 1.04s.156.747.255 1.135h-4.201c-.151-.114-.251-.284-.303-.511a2.748 2.748 0 0 1-.075-.604v-.587c-.266.393-.587.737-.965 1.04s-.789.563-1.229.775a6.923 6.923 0 0 1-1.352.491 5.559 5.559 0 0 1-1.333.171c-.945 0-1.791-.138-2.533-.417a4.535 4.535 0 0 1-1.891-1.323c-.516-.604-.912-1.39-1.182-2.344-.27-.96-.406-2.113-.406-3.465v-11.315h4.277v11.315c0 1.389.236 2.401.709 3.039.473.639 1.102.955 1.881.955.544 0 1.05-.108 1.522-.331a3.71 3.71 0 0 0 1.229-.917 4.45 4.45 0 0 0 .823-1.408 5.178 5.178 0 0 0 .302-1.806v-10.843h4.368v-.004zm4.617-8.064h4.921c0 .151-.023.27-.076.358-.052.09-.108.165-.17.228a2.756 2.756 0 0 0-.189.207.553.553 0 0 0-.113.284v13.646l6.943-6.868c.922.213 1.659.321 2.212.321h2.822l-7.397 7.138c.644.77 1.319 1.63 2.023 2.585s1.418 1.914 2.132 2.888 1.413 1.919 2.099 2.851c.69.927 1.328 1.758 1.919 2.491l-5.299.188-5.979-8.328-1.475 1.398v6.773h-4.372v-26.16h-.001z"/></svg>