<svg width="590" height="336" fill="none" xmlns="http://www.w3.org/2000/svg"><g clip-path="url(#a)"><path fill="#F4F1EF" stroke="#000" stroke-width="1.338" d="M44.847 16.669h480.5v318.548h-480.5z"/><circle cx="64.5" cy="280.5" r="33" stroke="#000" stroke-dasharray="8 8"/><circle cx="168" cy="305" r="9" fill="#AAE2BF"/><circle cx="132" cy="25" r="26.5" stroke="#000" stroke-dasharray="3 3"/><path stroke="#000" d="m264.277 25.707 16.569 16.569-16.569 16.569-16.569-16.569z"/><circle cx="434.5" cy="22.5" r="32.5" fill="#AAE2BF"/><path d="m451.369 321.336-1.018 3.8-.483-.13-.285 1.063-.778-.778-.354.354-2.781-2.782.353-.353-2.781-2.782-.354.354-2.781-2.782.353-.353-2.781-2.782-.354.354-2.781-2.782.353-.353-2.781-2.782-.354.354-2.781-2.782.353-.353-2.781-2.782-.354.354-2.781-2.782.353-.353-2.781-2.782-.354.354-2.781-2.782.353-.353-2.781-2.782-.354.354-2.781-2.782.353-.353-2.781-2.782-.354.354-2.781-2.782.353-.353-2.781-2.782-.354.354-2.781-2.782.353-.353-.778-.779 1.063-.284-.129-.483 3.799-1.018.13.482 3.799-1.018-.129-.483 3.8-1.018.129.483 3.8-1.018-.13-.483 3.8-1.018.129.483 3.8-1.018-.13-.483 3.8-1.018.129.483 3.8-1.018-.13-.483 3.8-1.018.129.483 3.8-1.018-.129-.483 3.799-1.018.13.483 3.799-1.019-.129-.482 3.799-1.019.13.483 3.799-1.018-.129-.483 3.8-1.018.129.483 3.799-1.018-.129-.483 3.8-1.018.129.483 1.063-.285-.285 1.063.483.13-1.018 3.799-.483-.129-1.018 3.8.483.129-1.018 3.8-.483-.13-1.018 3.8.483.129-1.018 3.8-.483-.13-1.018 3.8.483.129-1.018 3.8-.483-.13-1.018 3.8.483.129-1.018 3.8-.483-.129-1.018 3.799.482.13-1.018 3.799-.483-.129-1.018 3.799.483.13-1.018 3.799-.483-.129-1.018 3.799.483.13-1.018 3.799-.483-.129-1.018 3.8.483.129Z" stroke="#000" stroke-dasharray="4 4"/><path d="m347.071 306.117-12.031 44.899-32.868-32.869 44.899-12.03Z" stroke="#000"/></g><path stroke="#000" d="M44.678 16.5h480.838v318.887H44.678z"/><path stroke="#000" stroke-width="1.338" d="M446.669 16v320M366.072 17.338v318.549M205.458 17.338v318.549m80.307-318.549v318.549M125.154 17.338v318.549m-80.978-80.976h480.499M44.176 174.605h480.499M44.176 94.299h480.499"/><path d="m586.463 100.881-12.588-76.019-102.692 17.005 12.588 76.019 102.692-17.005Z" fill="#fff" stroke="#000"/><path d="m548.908 81.339 11.545-11.54-14.369-8.959 11.547-11.524-14.258-8.15" stroke="#000"/><path d="m548.403 77.17 11.544-11.541-14.369-8.957 11.547-11.527-14.258-8.147m-51.819 69.138 5.786-5.783-7.202-4.491 5.788-5.776L488.273 86" stroke="#000"/><path d="M505.329 206.618c17.006-17.301 8.847-61.487 8.847-61.487l28.956-2.555s7.415 30.804 4.438 50.304c-3.095 20.28-13.866 34.457-29.355 47.909-11.913 10.346-26.661 13.232-42.437 12.943-16.143-.295-27.371-4.244-38.483-14.273-21.733-19.618-32.747-66.977-32.747-66.977l25.755-12.284s14.097 63.284 43.577 61.762c13.647-.705 21.87-5.597 31.449-15.342Z" fill="#000" stroke="#000"/><path d="M554.091 95.07c1.375 2.558-16.352 36.988-16.352 36.988l1.862 12.104-9.357.637-11.576.802.531-11.27-7.011-22.296s4.752-.296 6.977 1.804c2.226 2.099 11.358-40.155 14.041-37.204 2.684 2.951-5.586 30.464-3.818 31.71 1.768 1.247 14.362-26.39 15.736-23.834 1.373 2.557-10.369 29.737-10.369 29.737s12.988-28.948 14.756-27.7c1.768 1.247-9.91 30.589-9.91 30.589s13.116-24.624 14.49-22.067Z" fill="#F4F1EF" stroke="#000" stroke-width="1.412"/><path fill="#000" d="m73.684 69.834 7.14-4.122 23.186 40.16-7.14 4.123z"/><circle cx="68.305" cy="53.305" r="27.309" transform="rotate(-30 68.305 53.305)" fill="#000"/><circle cx="68.304" cy="53.305" r="20.095" transform="rotate(-30 68.304 53.305)" fill="#fff"/><path fill-rule="evenodd" clip-rule="evenodd" d="M49.652 62.963v-.014l-.001-.035-.002-.132a26.576 26.576 0 0 1 .12-2.303 31.35 31.35 0 0 1 1.151-5.933c1.38-4.627 4.265-10.16 10.285-13.635 6.023-3.477 12.15-3.145 16.743-1.962 2.297.592 4.219 1.4 5.567 2.059.675.33 1.207.623 1.572.835a16.315 16.315 0 0 1 .53.321l.03.02.004.002a.5.5 0 0 1 .232.408l-.5.014.5-.013v.046l.001.123c0 .107-.002.263-.008.463-.014.399-.046.973-.121 1.681a28.019 28.019 0 0 1-1.178 5.553c-1.4 4.352-4.305 9.594-10.315 13.064-6.009 3.469-12.107 3.427-16.68 2.529a29.788 29.788 0 0 1-5.544-1.667 24.48 24.48 0 0 1-1.565-.706 15.589 15.589 0 0 1-.528-.275l-.03-.017-.008-.004-.002-.001c-.001-.001-.001-.001.247-.435l-.248.434a.5.5 0 0 1-.252-.42Zm35.231-20.078a24.231 24.231 0 0 0-1.807-.979 28.672 28.672 0 0 0-5.378-1.988c-4.435-1.144-10.271-1.444-15.993 1.859-5.723 3.304-8.49 8.574-9.826 13.055a30.376 30.376 0 0 0-1.115 5.742 25.607 25.607 0 0 0-.114 2.075c.074.038.163.084.268.136.345.172.853.41 1.5.677a28.789 28.789 0 0 0 5.356 1.61c4.42.868 10.252.898 15.988-2.413 5.733-3.31 8.514-8.31 9.863-12.505a27.03 27.03 0 0 0 1.135-5.352 22.145 22.145 0 0 0 .123-1.917Z" fill="#000"/><path d="M78.5 51.5c0 4.392-3.778 8-8.5 8-4.722 0-8.5-3.608-8.5-8 0-4.392 3.778-8 8.5-8 4.722 0 8.5 3.608 8.5 8Z" fill="#AAE2BF" stroke="#000"/><path d="M86.484 203.754c23.725 5.065 72.467-41.368 72.467-41.368l17.695 23.063s-37.85 38.624-55.902 46.576c-18.774 8.271-37.552 5.851-57.215 0-15.123-4.5-25.09-14.048-33.312-27.515-8.415-13.781-9.196-24.442-7.954-40.541 2.253-29.19 38.943-63.575 38.943-63.575l24.186 15.141s-45.834 45.856-28.73 69.914c7.917 11.138 16.458 15.451 29.822 18.305Z" fill="#000" stroke="#000"/><path fill-rule="evenodd" clip-rule="evenodd" d="M78.816 81.873c1.183-1.273 6.727-7.357 5.864-8.54-.967-1.324-6.4-.284-11.07 4.426l.412.359c-.44-.035-.83.084-1.131.415-1.253 1.384-2.856 13.29-2.856 13.29l-9.527 13.86 15.812 9.392-1.105 4.154s21.675-13.174 20.884-15.42c-.702-1.993-14.234-18.28-17.283-21.936Z" fill="#F4F1EF"/><path d="m84.68 73.332.403-.294-.403.294Zm-5.864 8.541-.366-.34-.3.322.282.338.384-.32Zm-5.206-4.114-.355-.352-.376.378.402.35.329-.376Zm.412.359-.04.498 1.509.12-1.14-.995-.33.377Zm-1.131.415-.37-.335.37.335Zm-2.856 13.29.412.283.068-.098.016-.118-.496-.067Zm-9.527 13.86-.412-.283-.303.44.46.273.255-.43Zm15.812 9.392.483.129.097-.365-.325-.193-.255.429Zm-1.105 4.154-.483-.129-.32 1.202 1.063-.646-.26-.427Zm20.884-15.42-.472.166.472-.166ZM84.276 73.627c-.03-.04.025-.008-.037.237-.056.222-.183.519-.383.882-.397.721-1.027 1.607-1.735 2.515-1.412 1.81-3.082 3.638-3.671 4.272l.733.68c.593-.64 2.287-2.491 3.726-4.337.718-.92 1.387-1.856 1.823-2.648.217-.393.39-.776.477-1.119.08-.319.12-.736-.126-1.072l-.807.59Zm-10.311 4.484c2.282-2.301 4.74-3.695 6.726-4.353.995-.33 1.852-.468 2.498-.455.68.014.99.19 1.087.324l.807-.59c-.385-.528-1.117-.718-1.873-.733-.792-.017-1.765.151-2.833.505-2.14.709-4.734 2.19-7.122 4.598l.71.704Zm.385-.37-.411-.36-.658.755.412.359.657-.754Zm-.289-.122c-.562-.044-1.117.11-1.54.579l.74.67c.177-.194.406-.277.722-.252l.078-.997Zm-1.54.579c-.23.254-.42.678-.584 1.135a19.16 19.16 0 0 0-.506 1.74c-.33 1.327-.65 2.958-.93 4.537a163.59 163.59 0 0 0-.961 6.144v.002l.495.067.496.067v-.008a.118.118 0 0 0 .004-.026l.014-.099.053-.378a169.613 169.613 0 0 1 .883-5.595c.278-1.57.594-3.175.916-4.47.162-.647.322-1.208.478-1.644.164-.459.3-.71.382-.801l-.74-.671ZM69.622 91.54l-9.527 13.86.824.566 9.527-13.86-.824-.566Zm-9.37 14.573 15.811 9.392.511-.859-15.812-9.393-.51.86Zm15.583 8.834-1.104 4.153.966.257 1.105-4.153-.967-.257Zm-.62 4.282.26.427v-.001l.003-.001.012-.008.047-.028.181-.111c.16-.098.393-.24.689-.423.592-.365 1.436-.89 2.448-1.525a300.081 300.081 0 0 0 7.377-4.783c2.662-1.789 5.312-3.656 7.25-5.221.967-.781 1.774-1.499 2.317-2.105.27-.3.494-.593.637-.866.134-.254.254-.598.133-.941l-.943.332c-.022-.062.022-.041-.075.145-.088.167-.249.388-.495.662-.49.545-1.248 1.224-2.202 1.995-1.903 1.536-4.523 3.384-7.18 5.169a300.38 300.38 0 0 1-7.352 4.766 344.47 344.47 0 0 1-2.44 1.521l-.685.421-.18.11-.047.028-.012.007-.002.002h-.001l.26.428Zm21.354-15.586a3.702 3.702 0 0 0-.32-.627c-.145-.242-.334-.53-.558-.856a68.64 68.64 0 0 0-1.762-2.408c-1.42-1.87-3.276-4.211-5.203-6.601A975.415 975.415 0 0 0 79.2 81.553l-.768.64a974.75 974.75 0 0 1 9.516 11.585c1.925 2.388 3.774 4.72 5.185 6.579.706.93 1.298 1.737 1.735 2.371.219.317.395.587.526.804.136.226.207.37.233.443l.943-.332Z" fill="#000"/><path d="M77.95 84.628c-.77-2.87 10.275-6.423 10.275-6.423l2.675-.896c3.072-.436 17.383 18.63 12.893 23.589-4.49 4.96-8.9 5.341-10.135 3.643-1.184-1.627 4.855-6.352 5.362-6.744-.169.12-1.066.665-4.755 1.825C90.038 100.952 87 100.898 87 98.5s9.708-7.51 9.708-7.51S80.915 95.986 81 92.5c.085-3.485 11.746-7.872 11.746-7.872s-14.028 2.87-14.797 0Z" fill="#F4F1EF" stroke="#000"/><circle cx="72" cy="52" r="3" fill="#000"/><path fill="#fff" stroke="#000" d="M125.5 68.5h321v215h-321z"/><path fill="#AAE2BF" stroke="#000" d="M125.5 254.5h321v30h-321z"/><path fill="#fff" stroke="#000" d="M137.5 263.5h11v11h-11z"/><path fill="#000" d="M158 263h12v12h-12z"/><path stroke="#000" d="M179.5 263.5h11v11h-11z"/><path fill="#fff" stroke="#000" d="M175.5 121.5h73v38h-73z"/><path fill="#fff" stroke="#000" d="M169.5 115.5h72v37h-72z"/><path fill="#AAE2BF" stroke="#000" d="M162.5 106.5h72v39h-72z"/><path d="m282.968 222.437 8.628-6.437-1.277 10.688-2.451-1.417-2.83 4.893-2.45-1.417 2.83-4.893-2.45-1.417Z" fill="#000"/><path stroke="#000" stroke-dasharray="4 4" d="M292.5 110.5h128v104h-128z"/><defs><clipPath id="a"><path fill="#fff" d="M44.178 16h481.838v319.887H44.178z"/></clipPath></defs></svg>