<svg width="736" height="340" fill="none" xmlns="http://www.w3.org/2000/svg"><path stroke="#000" d="M11.038 328.857h706.425M11.538 9.021v320.337M396.861 9.021v320.337M11.038 264.79h706.425M75.758 9.021v320.337M461.082 9.021v320.337M11.038 200.724h706.425M139.979 9.021v320.337M525.302 9.021v320.337M11.038 136.656h706.425M204.199 9.021v320.337M589.522 9.021v320.337M11.038 72.589h706.425M268.42 9.021v320.337M653.743 9.021v320.337M11.038 8.521h706.425m-384.822.5v320.337M717.963 9.021v320.337"/><mask id="a" style="mask-type:alpha" maskUnits="userSpaceOnUse" x="204" y="28" width="65" height="45"><path fill="#C4C4C4" d="M204.703 28.041h64.221v44.046h-64.221z"/></mask><g mask="url(#a)"><path d="M222.49 92.537c-4.536 0-8.624-.84-12.264-2.52-3.584-1.736-6.692-4.06-9.324-6.972a33.195 33.195 0 0 1-5.964-9.912 33.179 33.179 0 0 1-2.016-11.424c0-3.696.644-7.308 1.932-10.836a28.856 28.856 0 0 1 5.712-9.492c2.576-2.856 5.712-5.124 9.408-6.804 3.752-1.68 8.092-2.52 13.02-2.52 5.656 0 10.556 1.204 14.7 3.612 4.144 2.408 7.224 5.544 9.24 9.408l-10.584 7.392c-.896-2.072-2.1-3.696-3.612-4.872-1.512-1.232-3.164-2.072-4.956-2.52-1.736-.504-3.444-.756-5.124-.756-4.032 0-7.308 1.12-9.828 3.36-2.464 2.24-4.088 5.04-4.872 8.4h19.656v11.004h-19.992c.336 2.52 1.204 4.788 2.604 6.804a16.667 16.667 0 0 0 5.376 4.704c2.184 1.12 4.592 1.68 7.224 1.68 1.68 0 3.416-.252 5.208-.756a13.888 13.888 0 0 0 4.872-2.688c1.512-1.232 2.688-2.828 3.528-4.788l11.256 6.636c-1.232 2.968-3.192 5.488-5.88 7.56-2.688 2.016-5.768 3.584-9.24 4.704-3.416 1.064-6.776 1.596-10.08 1.596Z" fill="#000"/><path d="m210.226 90.017-.436.9.009.004.008.004.419-.908Zm-9.324-6.972-.755.655.007.008.006.008.742-.671Zm-5.964-9.912-.939.342.003.008.003.009.933-.359Zm-.084-22.26.94.343-.94-.343Zm5.712-9.492-.742-.67-.001.001.743.669Zm9.408-6.804-.408-.913-.006.003.414.91Zm27.72 1.092-.502.865.502-.865Zm9.24 9.408.573.82.72-.503-.406-.78-.887.463Zm-10.584 7.392-.918.397.487 1.124 1.004-.701-.573-.82Zm-3.612-4.872-.631.775.008.007.009.007.614-.789Zm-4.956-2.52-.279.96.019.005.018.005.242-.97Zm-14.952 2.604-.664-.747-.008.007.672.74Zm-4.872 8.4-.974-.227-.286 1.227h1.26v-1Zm19.656 0h1v-1h-1v1Zm0 11.004v1h1v-1h-1Zm-19.992 0v-1h-1.142l.151 1.132.991-.132Zm2.604 6.804-.821.57.009.013.01.013.802-.596Zm5.376 4.704-.483.875.013.008.014.007.456-.89Zm12.432.924.271.963.014-.004.014-.005-.299-.954Zm4.872-2.688-.631-.775-.008.006-.007.006.646.763Zm3.528-4.788.508-.861-.979-.578-.448 1.045.919.394Zm11.256 6.636.924.383.333-.803-.749-.442-.508.862Zm-5.88 7.56.6.8.011-.008-.611-.792Zm-9.24 4.704.298.955.009-.003-.307-.952Zm-10.08.596c-4.41 0-8.352-.816-11.845-2.428l-.838 1.816c3.788 1.748 8.022 2.612 12.683 2.612v-2Zm-11.828-2.42a29.149 29.149 0 0 1-9.018-6.743l-1.484 1.342a31.163 31.163 0 0 0 9.63 7.2l.872-1.799Zm-9.004-6.728a32.185 32.185 0 0 1-5.786-9.615l-1.867.718a34.204 34.204 0 0 0 6.142 10.208l1.511-1.31Zm-5.78-9.598a32.186 32.186 0 0 1-1.956-11.082h-2c0 4.037.693 7.96 2.077 11.766l1.879-.684Zm-1.956-11.082c0-3.577.623-7.073 1.872-10.493l-1.879-.686a32.355 32.355 0 0 0-1.993 11.179h2Zm1.872-10.493a27.851 27.851 0 0 1 5.516-9.166l-1.487-1.338a29.86 29.86 0 0 0-5.908 9.818l1.879.686Zm5.515-9.165c2.479-2.749 5.501-4.937 9.079-6.564l-.828-1.82c-3.813 1.733-7.063 4.08-9.736 7.044l1.485 1.34Zm9.074-6.561c3.6-1.613 7.797-2.433 12.611-2.433v-2c-5.041 0-9.525.86-13.428 2.607l.817 1.826Zm12.611-2.433c5.512 0 10.232 1.172 14.198 3.477l1.005-1.73c-4.322-2.511-9.402-3.747-15.203-3.747v2Zm14.198 3.477c3.997 2.322 6.936 5.326 8.856 9.005l1.773-.925c-2.112-4.048-5.334-7.316-9.624-9.81l-1.005 1.73Zm9.17 7.723-10.584 7.392 1.145 1.64 10.584-7.392-1.145-1.64Zm-9.094 7.815c-.951-2.199-2.249-3.968-3.916-5.264l-1.228 1.578c1.358 1.056 2.467 2.534 3.308 4.48l1.836-.794Zm-3.898-5.25c-1.619-1.32-3.403-2.23-5.345-2.715l-.485 1.94c1.641.41 3.162 1.18 4.567 2.325l1.263-1.55Zm-5.309-2.705c-1.82-.529-3.621-.796-5.403-.796v2c1.579 0 3.193.237 4.845.716l.558-1.92Zm-5.403-.796c-4.226 0-7.754 1.18-10.492 3.613l1.329 1.494c2.302-2.046 5.326-3.107 9.163-3.107v-2Zm-10.5 3.62c-2.62 2.382-4.345 5.363-5.174 8.913l1.948.454c.74-3.17 2.263-5.789 4.571-7.887l-1.345-1.48Zm-4.2 10.14h19.656v-2h-19.656v2Zm18.656-1v11.004h2V56.081h-2Zm1 10.004h-19.992v2h19.992v-2Zm-20.983 1.132c.356 2.672 1.28 5.091 2.774 7.242l1.643-1.14c-1.306-1.881-2.119-3.998-2.434-6.366l-1.983.264Zm2.793 7.268a17.654 17.654 0 0 0 5.695 4.983l.967-1.75a15.67 15.67 0 0 1-5.057-4.425l-1.605 1.192Zm5.722 4.998c2.335 1.197 4.901 1.79 7.68 1.79v-2c-2.485 0-4.735-.527-6.767-1.57l-.913 1.78Zm7.68 1.79c1.781 0 3.608-.267 5.479-.793l-.541-1.926c-1.714.482-3.359.719-4.938.719v2Zm5.507-.802a14.886 14.886 0 0 0 5.219-2.879l-1.292-1.526a12.885 12.885 0 0 1-4.524 2.496l.597 1.91Zm5.205-2.867c1.649-1.343 2.918-3.075 3.815-5.17l-1.838-.787c-.782 1.826-1.865 3.286-3.24 4.407l1.263 1.55Zm2.388-4.702 11.256 6.636 1.016-1.722-11.256-6.636-1.016 1.722Zm10.841 5.392c-1.162 2.797-3.009 5.18-5.567 7.15l1.221 1.585c2.818-2.172 4.89-4.83 6.193-7.969l-1.847-.766Zm-5.557 7.143c-2.592 1.944-5.571 3.463-8.947 4.552l.614 1.904c3.569-1.151 6.749-2.768 9.533-4.856l-1.2-1.6Zm-8.937 4.55c-3.328 1.036-6.588 1.55-9.783 1.55v2c3.413 0 6.873-.55 10.378-1.641l-.595-1.91Z" fill="#F4F1EF"/></g><path d="m583.503 322.175 5.436 6.683h64.807v-62.817l-6.758-8.256-62.78.849-.705 63.541Z" fill="#000" stroke="#000"/><path fill="#F4F1EF" stroke="#000" d="M583.501 257.782v64.068h63.221v-64.068z"/><path d="M625.748 288.172h-3.699V301.9h-14.797v-13.728h-2.877l10.275-13.729 11.098 13.729Z" fill="#000" stroke="#000"/><path d="m.402 63.313 10.971 8.377h128.712V8.752L131.357.399 1.794 1.253.402 63.313Z" fill="#000" stroke="#000" stroke-width=".795"/><path fill="#F4F1EF" stroke="#000" stroke-width=".795" d="M.398.398v63.017h130.205V.398z"/><path fill="#fff" stroke="#000" d="M157.224 172.637h92.471v91.867h-92.471z"/><path d="M157.257 258.274h86.879l5.545 6.508h-92.424v-6.508Z" fill="#000"/><path d="M209.368 201.27h17.383v23.234h-47.32" stroke="#000"/><path d="m174.002 224.487 15.127-6.702v13.404l-15.127-6.702Z" fill="#000"/><path d="m153.252 164.747-32.337-28.091H75.76l49.19 44.973 28.302-16.882Z" fill="#000" stroke="#000"/><path d="M180.771 218.984c.696 3.391-35.389-32.694-35.389-32.694l-9.981-10.68 15.201-8.756 9.888 5.047 24.727 6.61-15.441.679s7.987 6.141 10.784 7.69c2.796 1.549 19.923 12.536 19.521 14.031-.401 1.495-25.021-11.495-25.021-11.495s21.862 20.265 20.712 21.56c-1.151 1.295-24.914-17.876-24.914-17.876s22.612 20.465 21.461 21.76c-1.151 1.295-24.766-15.433-24.766-15.433s12.523 16.166 13.218 19.557Z" fill="#F4F1EF" stroke="#000"/><path fill="#fff" stroke="#000" d="M332.641 72.588h111.386v143.151H332.641z"/><path d="M350.492 243.316s-21.933 58.92-38.17 85.542h44.676l19.796-71.576-26.302-13.966Z" fill="#000" stroke="#000"/><path d="M387.329 216.775c2.271.136 1.172 8.784 1.172 8.784l-2.174 7.197-11.528 23.525-18.648-9.9-2.937 3.894-7.064-36.802 11.562 18.087s1.86-13.872 1.785-18.311c-.075-4.438 1.666-25.984 3.751-26.541 2.085-.557 3.137 31.388 3.137 31.388s1.935-9.434 4.579-7.912c2.643 1.523 3.835 10.121 3.835 10.121s2.494-7.354 4.858-6.872c2.365.483 2.998 7.001 2.998 7.001s2.403-3.795 4.674-3.659Z" fill="#F4F1EF" stroke="#000"/><path d="m558.114 132.878 5.081 1.729 53.948 93.218-79.088 45.552-5.42-1.807-53.995-92.92 79.474-45.772Z" fill="#000" stroke="#000" stroke-width="1.412"/><path d="m532.543 271.548-54.186-92.974 79.362-45.784 53.934 93.193-79.11 45.565Z" fill="#fff" stroke="#000"/><path d="m548.704 230.245 5.68 4.514-1.088-7.158.931-.536 1.198 8.568-.803.462-6.848-5.314.93-.536Zm11.961 2.5c-.51.293-1.03.432-1.561.417a3.025 3.025 0 0 1-1.461-.45c-.45-.28-.81-.655-1.082-1.124a3.135 3.135 0 0 1-.435-1.497 2.993 2.993 0 0 1 .35-1.492 2.831 2.831 0 0 1 1.127-1.145c.509-.293 1.028-.427 1.556-.401a2.899 2.899 0 0 1 1.471.444c.452.27.816.643 1.091 1.119.272.469.414.97.426 1.502a3.009 3.009 0 0 1-.341 1.487c-.245.463-.626.843-1.141 1.14Zm-3.217-1.655c.204.352.464.628.78.829.323.196.66.306 1.013.329.349.016.68-.066.993-.246.314-.181.549-.429.705-.745a2.06 2.06 0 0 0 .221-1.04 2.33 2.33 0 0 0-.326-1.103 2.262 2.262 0 0 0-.789-.823 2.065 2.065 0 0 0-1.013-.33 1.73 1.73 0 0 0-.999.237c-.314.18-.547.432-.699.754-.157.316-.23.663-.221 1.04.016.374.128.739.335 1.098Zm9.107-1.738c-.509.293-1.029.432-1.56.417a3.083 3.083 0 0 1-1.487-.448 3.143 3.143 0 0 1-1.097-1.129 3.15 3.15 0 0 1-.441-1.506 2.82 2.82 0 0 1 .362-1.473c.252-.467.636-.849 1.152-1.146.502-.289 1.006-.427 1.51-.413.507.003.961.141 1.363.414l-.69.749a1.582 1.582 0 0 0-.871-.241 1.754 1.754 0 0 0-.902.246c-.313.18-.553.427-.72.74-.16.31-.232.651-.216 1.025.012.367.123.733.335 1.098.207.358.471.641.791.848.323.197.66.306 1.013.329a1.79 1.79 0 0 0 1.009-.242c.202-.116.374-.263.515-.44.148-.181.256-.369.326-.566.072-.206.092-.396.061-.57l.989-.231c.065.459-.031.923-.29 1.393-.252.467-.636.849-1.152 1.146Zm1.848-3.163a1.53 1.53 0 0 1-.213-.999c.05-.35.2-.685.451-1.003.251-.318.592-.602 1.022-.85.229-.131.482-.251.759-.358a3.6 3.6 0 0 1 .766-.233l-.215-.372c-.226-.391-.521-.63-.884-.716-.367-.093-.766-.015-1.197.233-.281.162-.522.37-.722.625a4.93 4.93 0 0 0-.564.898l-.664-.426c.201-.42.435-.781.704-1.084.265-.309.577-.567.936-.774.653-.376 1.274-.49 1.864-.343.586.141 1.066.534 1.44 1.179l1.251 2.161c.116.202.268.254.455.155l.385.665a4.934 4.934 0 0 1-.35.254c-.202.116-.388.149-.556.099a.725.725 0 0 1-.37-.257l-.207-.311a2.51 2.51 0 0 1-.486 1.167 3.06 3.06 0 0 1-.932.849 2.262 2.262 0 0 1-1.029.319 1.912 1.912 0 0 1-.955-.206 1.719 1.719 0 0 1-.689-.672Zm3.538-1.556c.026-.136.035-.263.028-.381a.72.72 0 0 0-.073-.284l-.368-.635c-.512.077-.99.244-1.434.5-.438.252-.742.544-.915.878-.169.324-.167.636.006.936.095.163.23.298.405.406.178.097.38.146.607.146.233-.004.476-.079.731-.226a2.19 2.19 0 0 0 .673-.596 1.96 1.96 0 0 0 .34-.744Zm5.82-1.735c-.398.229-.817.34-1.257.333a2.58 2.58 0 0 1-1.215-.318l.555.959-.764.44-4.131-7.139.861-.497 1.766 3.052c.023-.457.133-.877.329-1.259.196-.383.504-.694.921-.935.353-.203.713-.31 1.08-.322.364-.018.717.043 1.06.185.346.131.664.326.953.586.292.249.538.546.738.891.275.476.422.978.441 1.507a2.929 2.929 0 0 1-.307 1.454c-.23.446-.573.8-1.03 1.063Zm-.646-.619c.346-.199.599-.462.758-.789.156-.333.225-.686.21-1.059a2.267 2.267 0 0 0-.307-1.049 2.45 2.45 0 0 0-.759-.815 2.011 2.011 0 0 0-.995-.366 1.661 1.661 0 0 0-1.03.228 1.733 1.733 0 0 0-.775.917c-.145.396-.198.8-.16 1.213l.855 1.477c.17.188.388.324.653.406.268.072.541.092.819.062.285-.033.529-.109.731-.225Zm-72.893-33.833a4.09 4.09 0 0 1-1.678.551 4.422 4.422 0 0 1-3.087-.95 4.456 4.456 0 0 1-1.065-1.242 4.218 4.218 0 0 1-.535-1.548 4.494 4.494 0 0 1 .078-1.637c.128-.545.36-1.048.694-1.508.33-.467.762-.855 1.296-1.162a3.888 3.888 0 0 1 1.674-.535 4.15 4.15 0 0 1 1.653.198 4.466 4.466 0 0 1 1.452.784c.429.343.778.747 1.047 1.21.268.464.444.959.526 1.484a4.281 4.281 0 0 1-.04 1.56l1.74.563-1.602.922-.625-.194a4.184 4.184 0 0 1-1.528 1.504Zm-.867-1.522c.263-.152.48-.337.649-.555l-1.942-.626 1.601-.922.762.239a2.87 2.87 0 0 0-.115-.75 3.328 3.328 0 0 0-.314-.734 2.951 2.951 0 0 0-.847-.938 2.221 2.221 0 0 0-1.13-.443c-.409-.051-.821.044-1.237.283-.43.248-.726.566-.889.955a2.31 2.31 0 0 0-.158 1.213c.058.419.193.812.405 1.179.221.381.502.699.844.955.338.248.714.396 1.13.443.411.04.825-.06 1.241-.299Zm4.127-3.237-.865-1.495 3.202-1.845.866 1.496-3.203 1.844Zm5.692-.467-4.268-7.374 1.706-.982 4.267 7.374-1.705.982Zm-5.608-7.557-.775-1.34 1.372-.791.776 1.34-1.373.791Zm2.184-1.258-.776-1.34 1.373-.79.775 1.339-1.372.791Z" fill="#000"/><path d="M551.922 176c0-2.88 31.745-24.637 31.745-24.637l6.733-15.354 6.734 4.798 9.619 7.677-5.771 9.597-7.696 36.152s-.962-15.354-1.924-18.233c-.962-2.879-28.858 29.749-29.82 25.91-.962-3.838 19.239-23.991 18.277-25.91-.962-1.92-25.011 16.313-25.011 13.435 0-2.879 23.087-21.112 23.087-21.112s-25.011 19.193-25.973 17.273c-.962-1.919 23.087-22.072 23.087-22.072S551.922 178.879 551.922 176Z" fill="#F4F1EF" stroke="#000" stroke-width="1.412"/><path d="m586.985 135.476 24.077 14.924 44.158-58.692V71.317h-30.104l-38.131 64.159Z" fill="#000"/><path d="m466.282 45.137 44.139-25.423 14.684 25.373v27.715h-42.812l-16.011-27.665Z" fill="#fff" stroke="#000"/><path d="m502.669 23.835 3.001 5.185c1.329 2.296-.867 3.624-2.529 1.457-1.662-2.168-3.111-4.578-5.023-7.883-1.913-3.304 2.598-5.79 4.461-2.57 1.863 3.22 4.778 7.46 7.45 12.077 2.673 4.618-3.555 8.046-6.504 3.746-2.949-4.3-4.673-8.074-8.679-14.997-4.006-6.922 4.041-11.557 8.047-4.635l2.918 5.042" stroke="#000"/><path d="m718.509 90.156-.354-17.067 12.633 11.515-4.093 1.85 3.71 8.167-4.093 1.85-3.71-8.166-4.093 1.851Z" fill="#000" stroke="#000"/><path fill="#F4F1EF" stroke="#000" stroke-dasharray="4 4" d="M589.522 8.52h128.444v64.068H589.522z"/><path d="M684.032 193.494c-3.582 0-6.846-.68-9.792-2.04-2.902-1.405-5.418-3.264-7.548-5.576a24.71 24.71 0 0 1-4.896-7.82 25.163 25.163 0 0 1-1.7-9.112c0-3.173.589-6.211 1.768-9.112 1.224-2.947 2.901-5.553 5.032-7.82a23.7 23.7 0 0 1 7.684-5.44c2.946-1.36 6.165-2.04 9.656-2.04 3.581 0 6.822.703 9.724 2.108 2.946 1.405 5.462 3.287 7.548 5.644a25.349 25.349 0 0 1 4.896 7.956c1.133 2.901 1.7 5.871 1.7 8.908 0 3.037-.544 5.961-1.632 8.772a24.369 24.369 0 0 1-4.624 7.548l6.936 7.684h-10.472l-2.516-2.72c-1.678.952-3.514 1.7-5.508 2.244-1.995.544-4.08.816-6.256.816Zm.068-9.928c1.722 0 3.309-.295 4.76-.884l-7.752-8.568h10.472l3.06 3.332a16.426 16.426 0 0 0 1.564-4.012c.362-1.496.544-2.992.544-4.488 0-2.493-.499-4.828-1.496-7.004-.952-2.221-2.38-4.012-4.284-5.372-1.859-1.405-4.148-2.108-6.868-2.108-2.811 0-5.168.725-7.072 2.176-1.859 1.405-3.264 3.241-4.216 5.508a18.175 18.175 0 0 0-1.36 6.936c0 2.493.476 4.851 1.428 7.072a13.076 13.076 0 0 0 4.284 5.372c1.904 1.36 4.216 2.04 6.936 2.04Z" fill="#AAE2BF"/><path d="m674.24 191.454-.436.9.008.004.009.004.419-.908Zm-7.548-5.576.735-.678-.735.678Zm-4.896-7.82-.934.359.002.005.932-.364Zm.068-18.224-.924-.384-.003.008.927.376Zm5.032-7.82-.728-.685h-.001l.729.685Zm7.684-5.44.407.913.012-.005-.419-.908Zm19.38.068-.436.9.005.003.431-.903Zm7.548 5.644-.749.663.007.008.742-.671Zm4.896 7.956-.934.359.002.005.932-.364Zm.068 17.68-.933-.361.933.361Zm-4.624 7.548-.744-.668-.602.67.603.668.743-.67Zm6.936 7.684v1h2.25l-1.508-1.67-.742.67Zm-10.472 0-.734.679.297.321h.437v-1Zm-2.516-2.72.734-.679-.538-.582-.69.391.494.87Zm-5.508 2.244-.263-.965.263.965Zm-1.428-9.996.376.927 1.324-.538-.959-1.06-.741.671Zm-7.752-8.568v-1h-2.254l1.512 1.671.742-.671Zm10.472 0 .736-.676-.297-.324h-.439v1Zm3.06 3.332-.737.676.938 1.021.673-1.211-.874-.486Zm1.564-4.012.97.243.002-.007-.972-.236Zm-.952-11.492-.919.394.005.011.005.012.909-.417Zm-4.284-5.372-.603.798.01.008.012.008.581-.814Zm-13.94.068.603.798.003-.003-.606-.795Zm-4.216 5.508-.922-.387-.004.009.926.378Zm.068 14.008-.919.394.003.007.916-.401Zm4.284 5.372-.594.805.006.004.007.005.581-.814Zm6.868 10.968c-3.452 0-6.571-.655-9.373-1.948l-.838 1.816c3.091 1.427 6.5 2.132 10.211 2.132v-2Zm-9.356-1.94c-2.792-1.352-5.205-3.136-7.249-5.354l-1.471 1.356c2.218 2.406 4.837 4.339 7.848 5.798l.872-1.8Zm-7.249-5.354a23.716 23.716 0 0 1-4.7-7.506l-1.863.728a25.73 25.73 0 0 0 5.092 8.134l1.471-1.356Zm-4.698-7.501a24.169 24.169 0 0 1-1.633-8.753h-2c0 3.252.589 6.411 1.766 9.471l1.867-.718Zm-1.633-8.753c0-3.046.565-5.955 1.694-8.736l-1.853-.752a24.974 24.974 0 0 0-1.841 9.488h2Zm1.691-8.728c1.179-2.839 2.791-5.343 4.837-7.519l-1.457-1.37c-2.215 2.357-3.958 5.066-5.227 8.121l1.847.768Zm4.837-7.519a22.702 22.702 0 0 1 7.363-5.212l-.815-1.826a24.703 24.703 0 0 0-8.004 5.668l1.456 1.37Zm7.375-5.217c2.805-1.295 5.88-1.948 9.237-1.948v-2c-3.624 0-6.988.707-10.075 2.132l.838 1.816Zm9.237-1.948c3.447 0 6.537.676 9.288 2.008l.872-1.8c-3.052-1.478-6.445-2.208-10.16-2.208v2Zm9.293 2.011c2.83 1.349 5.237 3.151 7.23 5.404l1.498-1.326c-2.178-2.461-4.803-4.423-7.867-5.884l-.861 1.806Zm7.237 5.412a24.302 24.302 0 0 1 4.704 7.644l1.867-.718a26.334 26.334 0 0 0-5.087-8.267l-1.484 1.341Zm4.706 7.649c1.09 2.788 1.632 5.634 1.632 8.544h2c0-3.165-.591-6.258-1.769-9.272l-1.863.728Zm1.632 8.544c0 2.915-.522 5.716-1.565 8.411l1.865.722a25.091 25.091 0 0 0 1.7-9.133h-2Zm-1.565 8.411a23.362 23.362 0 0 1-4.435 7.241l1.488 1.336a25.354 25.354 0 0 0 4.812-7.855l-1.865-.722Zm-4.434 8.579 6.936 7.684 1.485-1.34-6.936-7.684-1.485 1.34Zm7.679 6.014h-10.472v2h10.472v-2Zm-9.738.321-2.516-2.72-1.468 1.358 2.516 2.72 1.468-1.358Zm-3.744-2.911a22.755 22.755 0 0 1-5.277 2.149l.526 1.93c2.069-.565 3.983-1.343 5.738-2.339l-.987-1.74Zm-5.277 2.149c-1.905.52-3.901.781-5.993.781v2c2.26 0 4.434-.283 6.519-.851l-.526-1.93Zm-5.925-7.147c1.838 0 3.554-.315 5.136-.957l-.753-1.853c-1.319.536-2.777.81-4.383.81v2Zm5.501-2.555-7.752-8.568-1.483 1.342 7.752 8.568 1.483-1.342Zm-8.493-6.897h10.472v-2h-10.472v2Zm9.735-.324 3.06 3.332 1.473-1.352-3.06-3.332-1.473 1.352Zm4.671 3.142a17.47 17.47 0 0 0 1.66-4.255l-1.94-.485a15.446 15.446 0 0 1-1.468 3.768l1.748.972Zm1.662-4.262c.38-1.571.572-3.146.572-4.724h-2c0 1.414-.172 2.831-.516 4.252l1.944.472Zm.572-4.724c0-2.631-.527-5.108-1.587-7.421l-1.818.834c.935 2.04 1.405 4.231 1.405 6.587h2Zm-1.577-7.398c-1.022-2.384-2.564-4.322-4.622-5.792l-1.162 1.628c1.75 1.25 3.063 2.893 3.946 4.952l1.838-.788Zm-4.6-5.776c-2.06-1.557-4.571-2.31-7.471-2.31v2c2.54 0 4.608.653 6.265 1.906l1.206-1.596Zm-7.471-2.31c-2.99 0-5.571.775-7.678 2.381l1.212 1.59c1.701-1.295 3.834-1.971 6.466-1.971v-2Zm-7.675 2.378c-2.007 1.518-3.519 3.499-4.535 5.919l1.844.774c.887-2.113 2.187-3.804 3.897-5.097l-1.206-1.596Zm-4.539 5.928a19.18 19.18 0 0 0-1.434 7.314h2c0-2.273.428-4.457 1.286-6.558l-1.852-.756Zm-1.434 7.314c0 2.624.502 5.116 1.509 7.466l1.838-.788c-.897-2.093-1.347-4.316-1.347-6.678h-2Zm1.512 7.473a14.075 14.075 0 0 0 4.606 5.776l1.188-1.61a12.07 12.07 0 0 1-3.962-4.968l-1.832.802Zm4.619 5.785c2.1 1.5 4.623 2.226 7.517 2.226v-2c-2.547 0-4.647-.634-6.355-1.854l-1.162 1.628Z" fill="#000"/><path d="M423.192 273.008h12.036l16.592 48.28h-11.424l-3.74-10.812h-15.028l-3.672 10.812h-11.424l16.66-48.28Zm11.628 29.784-5.644-18.564-5.78 18.564h11.424Z" fill="#AAE2BF"/><path d="M423.192 273.008v-1h-.713l-.233.674.946.326Zm12.036 0 .945-.325-.232-.675h-.713v1Zm16.592 48.28v1h1.401l-.456-1.325-.945.325Zm-11.424 0-.946.327.233.673h.713v-1Zm-3.74-10.812.945-.327-.233-.673h-.712v1Zm-15.028 0v-1h-.717l-.23.679.947.321Zm-3.672 10.812v1h.716l.23-.678-.946-.322Zm-11.424 0-.946-.326-.457 1.326h1.403v-1Zm28.288-18.496v1h1.349l-.393-1.291-.956.291Zm-5.644-18.564.956-.291-.945-3.109-.966 3.103.955.297Zm-5.78 18.564-.955-.297-.404 1.297h1.359v-1Zm-.204-28.784h12.036v-2h-12.036v2Zm11.09-.675 16.592 48.28 1.891-.65-16.592-48.28-1.891.65Zm17.538 46.955h-11.424v2h11.424v-2Zm-10.479.673-3.74-10.812-1.891.654 3.74 10.812 1.891-.654Zm-4.685-11.485h-15.028v2h15.028v-2Zm-15.975.679-3.672 10.812 1.893.643 3.672-10.812-1.893-.643Zm-2.725 10.133h-11.424v2h11.424v-2Zm-10.479 1.327 16.66-48.28-1.891-.653-16.66 48.28 1.891.653Zm28.299-19.114-5.644-18.564-1.913.582 5.644 18.564 1.913-.582Zm-7.555-18.57-5.78 18.564 1.909.595 5.78-18.564-1.909-.595Zm-4.825 19.861h11.424v-2h-11.424v2Z" fill="#000"/><path fill="#AAE2BF" d="M268.924 73.089h63.217v63.066h-63.217zM76.262 265.291h63.217v63.066H76.262z"/><path d="M18.121 26.221c-1.133 0-2.113-.246-2.94-.74a5.251 5.251 0 0 1-1.9-1.96 5.485 5.485 0 0 1-.68-2.68 5.7 5.7 0 0 1 .66-2.72 5.125 5.125 0 0 1 1.92-2c.827-.506 1.813-.76 2.96-.76s2.127.254 2.94.76a4.92 4.92 0 0 1 1.86 1.98c.44.814.66 1.694.66 2.64 0 .347-.02.647-.06.9h-8.1c.067.814.367 1.454.9 1.92a2.81 2.81 0 0 0 1.88.7 3.09 3.09 0 0 0 1.5-.38c.48-.266.807-.613.98-1.04l2.3.64c-.387.8-1.007 1.46-1.86 1.98-.853.507-1.86.76-3.02.76Zm-2.74-6.28h5.48c-.08-.786-.38-1.42-.9-1.9-.507-.493-1.127-.74-1.86-.74-.72 0-1.34.247-1.86.74-.507.48-.793 1.114-.86 1.9Zm19.593 6.08h-2.68v-5.88c0-.84-.147-1.453-.44-1.84-.294-.386-.7-.58-1.22-.58-.36 0-.727.094-1.1.28a3.38 3.38 0 0 0-.98.78 2.92 2.92 0 0 0-.64 1.12v6.12h-2.68v-10.48h2.42v1.94c.386-.653.946-1.166 1.68-1.54.733-.386 1.56-.58 2.48-.58.653 0 1.186.12 1.6.36.413.227.733.54.96.94a3.8 3.8 0 0 1 .46 1.32c.093.494.14.994.14 1.5v6.54Zm8.551-.54c-.36.16-.806.32-1.34.48-.52.16-1.06.24-1.62.24a3.48 3.48 0 0 1-1.36-.26 2.224 2.224 0 0 1-1-.82c-.24-.386-.36-.886-.36-1.5v-6.02h-1.38v-2.06h1.38v-3.4h2.68v3.4h2.2v2.06h-2.2v5.12c0 .36.094.62.28.78.2.16.44.24.72.24.28 0 .554-.046.82-.14.267-.093.48-.173.64-.24l.54 2.12Zm6.12.74c-1.134 0-2.114-.246-2.94-.74a5.25 5.25 0 0 1-1.9-1.96 5.484 5.484 0 0 1-.68-2.68 5.7 5.7 0 0 1 .66-2.72 5.125 5.125 0 0 1 1.92-2c.826-.506 1.813-.76 2.96-.76 1.146 0 2.126.254 2.94.76a4.92 4.92 0 0 1 1.86 1.98c.44.814.66 1.694.66 2.64 0 .347-.02.647-.06.9h-8.1c.066.814.366 1.454.9 1.92.546.467 1.173.7 1.88.7a3.09 3.09 0 0 0 1.5-.38c.48-.266.806-.613.98-1.04l2.3.64c-.387.8-1.007 1.46-1.86 1.98-.854.507-1.86.76-3.02.76Zm-2.74-6.28h5.48c-.08-.786-.38-1.42-.9-1.9-.507-.493-1.127-.74-1.86-.74-.72 0-1.34.247-1.86.74-.507.48-.794 1.114-.86 1.9Zm16.092-2.08c-.813 0-1.54.16-2.18.48-.64.307-1.1.754-1.38 1.34v6.34h-2.68v-10.48h2.46v2.24c.36-.72.827-1.286 1.4-1.7.587-.413 1.2-.64 1.84-.68.28 0 .46.007.54.02v2.44Z" fill="#000"/><path fill="#F4F1EF" stroke="#000" d="M35.621 179.7h15.055v21.023H35.621zm-.757-5.016-4.76-9.498h9.52l-4.76 9.498Zm15.869 0-4.76-9.498h9.52l-4.76 9.498Z"/><path fill="#000" d="M343.424 117.434h89.347v1.001h-89.347zm0 18.764h89.347v1.001h-89.347zm0 18.766h89.347v1.001h-89.347zm0 18.765h63.483v1.001h-63.483zm54.967 25.951h31.638v1.001h-31.638zm9.491-7.466h22.146v1.001h-22.146z"/><path d="m348.698 87.103-4.515 2.502 4.515 3.003m10.035-5.505 4.515 2.502-4.515 3.003m-2.509-6.505-5.017 7.007M642.85 35.192l-9.676 5.363 9.676 6.435m21.502-11.798 9.676 5.363-9.676 6.435m-5.376-13.943-10.751 15.016" stroke="#000" stroke-linecap="square"/></svg>