<svg width="928" height="600" fill="none" xmlns="http://www.w3.org/2000/svg"><g clip-path="url(#a)"><path d="M465.645 446.723h153.021v152.199H465.645V446.723ZM774.98 1.645h153.022V146.44H774.98V1.645Zm0 445.078h153.022v150.554H774.98V446.723Zm-773.335-.822h153.021v151.376H1.645V445.901ZM620.313 146.44h153.021v149.73H620.312l.001-149.73ZM156.312 2.468h153.022v143.149H156.312V2.468Z" fill="#AAE2BF"/><path stroke="#000" stroke-width="2.514" d="M1.257 1.257h925.486v596.408H1.257zM774.589 0v597.281M619.925 2.498V597.07M310.589 2.498V597.07M465.257 2.498V597.07M155.929 2.498V597.07M0 445.921h925.422M0 296.029h925.422M0 146.137h925.422"/><path d="M271.607 374.372v37.068h-21.719v34.461h-40.253V411.44h-95.854v-37.068l67.474-131.183h42.86L156.93 374.372h52.705v-48.071h40.253v48.071h21.719Zm194.86 71.529c-23.351 0-41.711-15.066-55.08-45.199-13.19-30.437-19.785-70.765-19.785-120.986 0-50.22 6.595-90.397 19.785-120.529 13.369-30.437 31.729-45.655 55.08-45.655 23.529 0 41.889 15.218 55.079 45.655 13.191 30.132 19.786 70.309 19.786 120.529 0 50.221-6.595 90.549-19.786 120.986-13.19 30.133-31.55 45.199-55.079 45.199Zm-28.342-88.115c6.417 17.654 15.864 26.48 28.342 26.48 12.477 0 21.925-8.978 28.342-26.936 6.595-17.958 9.893-43.829 9.893-77.614 0-34.089-3.298-60.112-9.893-78.07-6.417-17.957-15.865-26.936-28.342-26.936-12.478 0-21.925 8.979-28.342 26.936-6.417 17.958-9.626 43.981-9.626 78.07 0 34.089 3.209 60.113 9.626 78.07Zm316.675 23.37-8.692 36.033-21.114-5.093-8.081 33.501-39.13-9.44 8.081-33.5-93.181-22.477 8.692-36.034 96.355-111.703 41.664 10.05-96.074 111.771 51.236 12.359 11.273-46.731 39.13 9.439-11.273 46.732 21.114 5.093Z" fill="#000"/><path d="M160.423 282.814c1.645-5.951-48.532-12.97-48.532-12.97l-28.5-27.125-8.226 17.529-10.81 26.754 24.5 9.991s73.626 55.424 77.334 51.83c3.709-3.595-20.565-19.745-18.922-21.39 1.644-1.646 25.2 14.848 27.964 11.517 2.763-3.33-21.796-18.922-20.568-20.567 1.229-1.645 25.773 12.897 27.978 9.05 2.204-3.847-22.624-19.172-22.218-21.39.406-2.218 27.304 12.295 27.067 7.22-.237-5.076-36.791-27.788-36.791-27.788s8.079 3.291 9.724-2.661Z" fill="#F4F1EF" stroke="#000" stroke-width="3.111"/><path d="m97.576 246.66-31.803 47.194-92.51-36.87-.008-13.163.006-105.305L97.576 246.66Z" fill="#000"/><path d="M481.237 176.735c5.683-1.646 10.689-60.88 10.689-60.88l-2.462-39.489 7.404-36.199-15.305-2.815-28.779-2.098v25.48s-30.786 67.685-27.492 71.687c3.294 4.001 15.426-11.764 18.1-18.211 2.674-6.447-3.293 62.524 2.468 62.525 5.762 0 9.05-31.263 9.05-31.263s.004 28.745 4.114 29.617c4.11.872 7.403-29.617 7.403-29.617s-.821 29.617 4.115 29.617 7.403-28.794 7.403-28.794-2.391 32.085 3.292 30.44Z" fill="#F4F1EF" stroke="#000" stroke-width="3.111"/><path d="m494.404 77.189-53.478-13.986 12.341-60.88h64.172l-23.035 74.866Z" fill="#000"/><path d="M687.652 238.394c5.712-3.271 49.649 19.054 49.649 19.054l38.109-4.085-1.869 18.809-4.302 27.804-25.593-.548s-71.917 12.137-71.311 4.712c.606-7.425 20.409-5.353 23.512-8.832 3.102-3.479-36.875-17.238-33.844-24.192 3.03-6.953 24.225 4.718 24.225 4.718s-20.388-11.514-16.057-16.537c4.331-5.024 23.754 7.14 23.754 7.14s-20.243-13.505-17.528-17.594c2.716-4.089 24.889 5.617 24.889 5.617s-19.346-12.795-13.634-16.066Z" fill="#F4F1EF" stroke="#000" stroke-width="2.324"/><path d="m772.584 245.984-6.661 59.617L926 337.016l4.087-35.967 6.406-56.403-163.909 1.338Z" fill="#000"/></g><defs><clipPath id="a"><path fill="#fff" d="M0 0h928v600H0z"/></clipPath></defs></svg>