<svg width="1120" height="708" fill="none" xmlns="http://www.w3.org/2000/svg"><g clip-path="url(#a)"><path d="m194.303 72.333-72.004-33.474-7.413 79.882-71.947-33.506-4.273 78.051" stroke="#000"/><circle cx="212.5" cy="642.5" r="42.5" fill="#AAE2BF"/><path d="m586.735 671.983-1.06 3.955-.483-.13-.305 1.141-.835-.835-.354.353-2.895-2.894.354-.354-2.895-2.895-.354.354-2.895-2.895.354-.354-2.895-2.894-.353.353-2.895-2.895.353-.353-2.895-2.895-.353.353-2.895-2.894.354-.354-2.895-2.895-.354.354-2.895-2.895.354-.354-2.895-2.895-.354.354-2.894-2.895.353-.353-2.895-2.895-.353.353-2.895-2.895.353-.353-2.894-2.895-.354.354-2.895-2.895.354-.354-2.895-2.895-.354.354-2.895-2.895.354-.354-2.895-2.894-.353.353-2.895-2.895.353-.353-2.895-2.895-.353.353-2.895-2.894.354-.354-.835-.835 1.14-.306-.129-.483 3.954-1.059.13.483 3.954-1.06-.129-.483 3.954-1.059.13.483 3.954-1.06-.129-.483 3.954-1.06.129.483 3.955-1.059-.129-.483 3.954-1.06.129.483 3.955-1.059-.13-.483 3.955-1.06.129.483 3.955-1.06-.13-.483 3.955-1.059.129.483 3.955-1.06-.13-.483 3.955-1.059.129.483 3.954-1.06-.129-.483 3.954-1.059.13.482 3.954-1.059-.129-.483 3.954-1.06.13.483 3.954-1.059-.129-.483 3.954-1.06.13.483 3.954-1.059-.129-.483 3.954-1.06.13.483 1.14-.306-.305 1.141.483.129-1.06 3.955-.483-.13-1.06 3.955.483.129-1.059 3.955-.483-.13-1.06 3.955.483.129-1.059 3.955-.483-.13-1.06 3.955.483.129-1.06 3.954-.483-.129-1.059 3.955.483.129-1.06 3.954-.483-.129-1.059 3.954.483.13-1.06 3.954-.483-.129-1.059 3.954.482.13-1.059 3.954-.483-.129-1.06 3.954.483.13-1.059 3.954-.483-.129-1.06 3.954.483.129-1.059 3.955-.483-.13-1.06 3.955.483.129-1.06 3.955-.483-.13-1.059 3.955.483.129Z" stroke="#000" stroke-dasharray="4 4"/><path d="m1071.75 267.624-22.86 85.325-62.465-62.462 85.325-22.863Z" stroke="#000"/><circle cx="84.5" cy="386.5" r="52" stroke="#000" stroke-dasharray="8 8"/><circle cx="999" cy="90" r="57.5" stroke="#000" stroke-dasharray="2 2"/><path stroke="#AAE2BF" d="m376.281 17.683 52.996 30.597-30.597 52.997-52.997-30.598z"/><path d="m977.535 635.535-11.701-94.151h23.401l-11.7 94.151Zm-.001 0 11.701 94.152h-23.401l11.7-94.152Zm.001.003 94.155-11.701v23.401l-94.155-11.7Z" fill="#AAE2BF"/><path d="m977.535 635.534-94.151 11.7v-23.401l94.151 11.701Z" fill="#AAE2BF"/><path d="m977.439 635.438 74.881 58.265-16.62 16.621-58.261-74.886Z" fill="#AAE2BF"/><path d="m977.508 635.436-58.264 74.886-16.622-16.621 74.886-58.265Z" fill="#AAE2BF"/><path d="m977.443 635.506 58.267-74.886 16.62 16.622-74.887 58.264Z" fill="#AAE2BF"/><path d="m977.506 635.507-74.886-58.265 16.622-16.621 58.264 74.886Z" fill="#AAE2BF"/><circle cx="662.5" cy="51.5" r="21.5" fill="#AAE2BF"/></g><defs><clipPath id="a"><path fill="#fff" d="M0 0h1120v708H0z"/></clipPath></defs></svg>