<svg width="516" height="516" fill="none" xmlns="http://www.w3.org/2000/svg"><circle r="257" transform="matrix(1 0 0 -1 258 258)" stroke="#fff" stroke-width="2"/><path fill="#fff" stroke="#000" stroke-width="2" d="M328.466 329.404h138.687v138.687H328.466z"/><path d="M445.983 361.051v-2.286h1.188v-9.468h-1.188v-2.286h3.852v14.04h-3.852Z" fill="#000"/><path fill="#fff" stroke="#000" stroke-width="2" d="M49.905 50.843h138.687V189.53H49.905zm0 277.623h138.687v138.687H49.905z"/><path d="m165.514 258.043-23.742-34.686-25.057 35.595-23.707-34.685-23.128 35.561" stroke="#fff"/><path d="m170.413 258.043-23.741-34.686-25.057 35.595-23.707-34.685-23.129 35.561" stroke="#000"/><path d="m160.504 258.044-23.747-34.685-25.051 35.594-23.712-34.684-23.123 35.56" stroke="#000"/><path d="m166.512 292.186-23.742-34.685-25.057 35.595-23.707-34.685-23.128 35.56" stroke="#fff"/><path d="M171.351 292.745 147.61 258.06l-25.057 35.595-23.707-34.685-23.129 35.561" stroke="#000"/><path d="m161.442 292.747-23.747-34.685-25.051 35.594-23.712-34.685-23.123 35.561" stroke="#000"/><path fill-rule="evenodd" clip-rule="evenodd" d="m80.171 102.361-.356.359.352.364 15.942 16.445-15.947 16.452-.349.359.349.359 15.86 16.361.695-.718-15.511-16.002 15.599-16.092 22.267 22.971.348.359.348-.359 22.262-22.966 15.594 16.087-15.512 16.002.696.718 15.86-16.361.348-.359-.348-.359-15.942-16.446 15.947-16.451.348-.359-.348-.359-15.86-16.362-.696.718 15.512 16.003-15.599 16.092-22.267-22.971-.348-.359-.348.359-22.262 22.965-15.59-16.082 16.43-16.541-.687-.727-16.787 16.9Zm17.33 17.168 21.919 22.613 21.914-22.607-21.919-22.612-21.914 22.606Z" fill="#000"/><path fill="#000" d="m118.855 105.539 12.678 12.954-12.678 12.955-12.678-12.955z"/><path d="m297.271 375.962-40.028 69.331-40.028-69.331h80.056Z" fill="#fff" stroke="#000"/><mask id="a" style="mask-type:alpha" maskUnits="userSpaceOnUse" x="222" y="366" width="71" height="62"><path d="m222.952 426.66 34.397-59.578 34.398 59.578h-68.795Z" fill="#C4C4C4" stroke="#000"/></mask><g mask="url(#a)" fill="#000"><path d="m201.786 412.555 68.23-53.941.367.273-68.23 53.941zm4.76 3.547 68.23-53.941.367.273-68.23 53.941zm4.761 3.547 68.23-53.941.367.273-68.23 53.941zm4.76 3.547 68.23-53.941.367.273-68.23 53.941zm2.348 3.855 68.23-53.941.367.273-68.23 53.941zm4.76 3.547 68.23-53.941.367.273-68.23 53.941zm4.76 3.547 68.23-53.941.367.273-68.23 53.941zm4.761 3.547 68.23-53.941.367.273-68.23 53.941zm2.347 4.282 68.23-53.941.367.273-68.23 53.941zm4.761 3.547 68.23-53.941.367.273-68.23 53.941zm4.759 3.547 68.23-53.941.367.273-68.23 53.941zm4.761 3.547 68.23-53.941.367.273-68.23 53.941z"/></g><path d="m419.047 376.771-17.635 13.321 13.013-17.851 4.622 4.53Zm5.453 18.49-21.998-2.795 21.998-3.587v6.382Zm-9.457 16.91-13.547-17.293 18.168 12.764-4.621 4.529Zm-18.822 5.346 2.859-21.637 3.669 21.637h-6.528Zm-17.23-9.27 17.634-13.29-13.013 17.82-4.621-4.53Zm-5.491-18.466 22.036 2.806-22.036 3.588v-6.394Zm9.458-16.898 13.576 17.29-18.185-12.762 4.609-4.528Zm18.859-5.383-2.86 21.67-3.669-21.67h6.529Z" stroke="#000"/><path fill="#fff" stroke="#000" stroke-width="2" d="M188.717 189.655h139.625v138.687H188.717z"/><path stroke="#000" stroke-dasharray="6 6" d="M328.904 49.405h139.687v139.687H328.904z"/><path fill="#000" stroke="#000" d="M358.917 85.046h62.778v74.033h-62.778z"/><path fill="#fff" stroke="#000" d="M366.42 77.543h62.778v74.033H366.42zm101.749 129.091.803-17.001 11.758 12.306-4.187 1.565 3.13 8.373-4.187 1.565-3.13-8.373-4.187 1.565Z"/><path d="M386.211 89.472h2.832l3.904 11.36h-2.688l-.88-2.544h-3.536l-.864 2.544h-2.688l3.92-11.36Zm2.736 7.008-1.328-4.368-1.36 4.368h2.688ZM48.905 461.588h132.246l8.441 7.503H48.905v-7.503ZM327.466 320.9h132.246l8.441 7.504H327.466V320.9Z" fill="#000"/><path d="M411.496 236.488h21.017v28.159H375.3M222.543 119.426l36.632-36.632 36.633 36.632-36.633 36.632z" stroke="#000"/><path fill="#fff" stroke="#000" d="m239.122 119.426 20.133-20.133 20.134 20.133-20.134 20.133z"/><path fill="#000" stroke="#000" d="m251.222 119.45 7.958-7.958 7.958 7.958-7.958 7.958z"/><path d="m368.734 264.625 18.29-8.122v16.245l-18.29-8.123Zm4.057-168.401 6.752-4.08v2.272l-3.632 2.272 3.632 2.176v2.4l-6.752-4v-1.04Zm28.175 1.04-6.752 4v-2.4l3.632-2.176-3.632-2.272v-2.272l6.752 4.08v1.04Z" fill="#000"/><mask id="b" style="mask-type:alpha" maskUnits="userSpaceOnUse" x="225" y="219" width="69" height="69"><circle cx="259.433" cy="253.444" r="34.407" transform="rotate(-22.445 259.433 253.444)" fill="#C4C4C4"/></mask><g mask="url(#b)"><path fill="#000" stroke="#000" stroke-width=".929" d="m235.954 209.061 8.686-3.588 39.081 94.609-8.686 3.588z"/><path fill="#000" stroke="#000" stroke-width=".929" d="m217.758 277.215-3.588-8.686 87.775-36.257 3.588 8.686z"/><path fill="#000" stroke="#000" stroke-width=".929" d="m214.227 240.826 3.605-8.68 87.705 36.429-3.605 8.679z"/><path fill="#000" stroke="#000" stroke-width=".929" d="m273.722 208.961 8.68 3.605-36.429 87.705-8.679-3.605z"/><path d="m255.114 242.988 4.302 5.788 4.934-5.26-1.843 6.972 7.188.578-6.599 2.906 4.03 5.981-6.388-3.348-2.162 6.88-1.365-7.082-6.727 2.599 4.685-5.482-6.226-3.64 7.207.245-1.036-7.137Z" fill="#fff"/></g><mask id="c" style="mask-type:alpha" maskUnits="userSpaceOnUse" x="212" y="276" width="27" height="27"><circle cx="225.563" cy="289.439" r="12.975" fill="#C4C4C4"/></mask><g mask="url(#c)"><path fill="#000" stroke="#000" stroke-width=".429" d="M223.369 266.369h4.338v47.244h-4.338z"/><path fill="#000" stroke="#000" stroke-width=".429" d="M203.597 292.236v-4.338h43.832v4.338z"/><path fill="#000" stroke="#000" stroke-width=".429" d="m208.503 276.091 3.067-3.067 30.994 30.993-3.067 3.068z"/><path fill="#000" stroke="#000" stroke-width=".429" d="m239.497 272.981 3.067 3.067-30.993 30.994-3.068-3.067z"/><path d="m225.563 285.447.662 2.946 2.459-1.255-1.634 2.419 2.405 1.381-2.7.07.54 2.977-1.732-2.331-1.732 2.331.54-2.977-2.7-.07 2.405-1.381-1.634-2.419 2.459 1.255.662-2.946Z" fill="#fff"/></g><path fill="#000" d="M112.781 383.983h9.981v33.934h-9.981z"/><path d="M112.781 380.988 109.787 375h5.989l-2.995 5.988Zm9.981 0L119.768 375h5.988l-2.994 5.988Z" fill="#000" stroke="#000"/><path d="M67.313 79.596v-14.04h3.87v2.286h-1.206v9.468h1.206v2.286h-3.87Zm88.355 97.205v.864h-2.592v-.864h.852v-1.53a.771.771 0 0 1-.246.192c-.112.064-.236.12-.372.168-.132.044-.25.066-.354.066v-.888a.653.653 0 0 0 .252-.066c.1-.044.2-.096.3-.156.104-.064.194-.128.27-.192a.568.568 0 0 0 .15-.156h.978v2.562h.762Zm3.106 0v.864h-2.592v-.864h.852v-1.53a.771.771 0 0 1-.246.192c-.112.064-.236.12-.372.168-.132.044-.25.066-.354.066v-.888a.653.653 0 0 0 .252-.066c.1-.044.2-.096.3-.156.104-.064.194-.128.27-.192a.568.568 0 0 0 .15-.156h.978v2.562h.762Zm3.549-.894c0 .352-.068.666-.204.942a1.619 1.619 0 0 1-.558.642 1.425 1.425 0 0 1-.804.234c-.3 0-.568-.078-.804-.234a1.619 1.619 0 0 1-.558-.642 2.104 2.104 0 0 1-.204-.942c0-.352.068-.664.204-.936a1.61 1.61 0 0 1 .558-.648 1.4 1.4 0 0 1 .804-.24c.3 0 .568.08.804.24.236.156.422.372.558.648.136.272.204.584.204.936Zm-.966 0c0-.28-.058-.506-.174-.678-.112-.176-.254-.264-.426-.264-.18 0-.326.088-.438.264-.112.172-.168.398-.168.678s.056.506.168.678c.112.172.258.258.438.258.172 0 .314-.086.426-.258.116-.172.174-.398.174-.678Zm4.652 0c0 .352-.068.666-.204.942a1.619 1.619 0 0 1-.558.642 1.425 1.425 0 0 1-.804.234c-.3 0-.568-.078-.804-.234a1.619 1.619 0 0 1-.558-.642 2.104 2.104 0 0 1-.204-.942c0-.352.068-.664.204-.936a1.61 1.61 0 0 1 .558-.648 1.4 1.4 0 0 1 .804-.24c.3 0 .568.08.804.24.236.156.422.372.558.648.136.272.204.584.204.936Zm-.966 0c0-.28-.058-.506-.174-.678-.112-.176-.254-.264-.426-.264-.18 0-.326.088-.438.264-.112.172-.168.398-.168.678s.056.506.168.678c.112.172.258.258.438.258.172 0 .314-.086.426-.258.116-.172.174-.398.174-.678Zm4.651 0c0 .352-.068.666-.204.942a1.619 1.619 0 0 1-.558.642 1.425 1.425 0 0 1-.804.234c-.3 0-.568-.078-.804-.234a1.619 1.619 0 0 1-.558-.642 2.104 2.104 0 0 1-.204-.942c0-.352.068-.664.204-.936a1.61 1.61 0 0 1 .558-.648 1.4 1.4 0 0 1 .804-.24c.3 0 .568.08.804.24.236.156.422.372.558.648.136.272.204.584.204.936Zm-.966 0c0-.28-.058-.506-.174-.678-.112-.176-.254-.264-.426-.264-.18 0-.326.088-.438.264-.112.172-.168.398-.168.678s.056.506.168.678c.112.172.258.258.438.258.172 0 .314-.086.426-.258.116-.172.174-.398.174-.678Zm4.652 0c0 .352-.068.666-.204.942a1.619 1.619 0 0 1-.558.642 1.425 1.425 0 0 1-.804.234c-.3 0-.568-.078-.804-.234a1.619 1.619 0 0 1-.558-.642 2.104 2.104 0 0 1-.204-.942c0-.352.068-.664.204-.936a1.61 1.61 0 0 1 .558-.648 1.4 1.4 0 0 1 .804-.24c.3 0 .568.08.804.24.236.156.422.372.558.648.136.272.204.584.204.936Zm-.966 0c0-.28-.058-.506-.174-.678-.112-.176-.254-.264-.426-.264-.18 0-.326.088-.438.264-.112.172-.168.398-.168.678s.056.506.168.678c.112.172.258.258.438.258.172 0 .314-.086.426-.258.116-.172.174-.398.174-.678Zm4.207.894v.864h-2.592v-.864h.852v-1.53a.771.771 0 0 1-.246.192c-.112.064-.236.12-.372.168-.132.044-.25.066-.354.066v-.888a.653.653 0 0 0 .252-.066c.1-.044.2-.096.3-.156.104-.064.194-.128.27-.192a.568.568 0 0 0 .15-.156h.978v2.562h.762Z" fill="#000"/></svg>