<svg width="140" height="41" fill="none" xmlns="http://www.w3.org/2000/svg"><path fill-rule="evenodd" clip-rule="evenodd" d="M31.7 24.632v1.666h3.43V12.813l-3.442-.033v1.634c-1.201-.843-2.976-1.484-4.88-1.601-2.544-.15-4.784.694-6.202 2.338-2.143 2.54-2.056 6.876.281 9.268 1.353 1.398 3.41 2.124 5.704 2.028 2.034-.085 4.09-.694 5.108-1.815ZM12.824 26.33h3.81V7.549h-3.81v18.78ZM136.19 3.758V0H83.929v3.758h52.261ZM67.727 24.055v5.67l-1.688-1.58h-7.922v3.427c4.296 0 8.658-.032 12.954 0v-18.76l-3.311-.031h-.033v1.548c-1.136-.79-2.857-1.4-4.664-1.517-2.457-.149-4.632.663-5.953 2.243-2.088 2.391-1.991 6.513.25 8.787 1.32 1.367 3.257 2.06 5.497 1.965 1.927-.086 3.918-.684 4.87-1.752Zm.033-5.904v2.36a6.329 6.329 0 0 1-.282.48c-.984 1.399-3.311 2.125-5.184 1.666-1.753-.427-2.824-1.783-2.91-3.182-.098-1.452.854-2.936 2.52-3.46 1.938-.608 4.6.15 5.618 1.698.075.16.14.289.238.438ZM37.933 26.33h3.81v-7.602c0-4.271 7.889-4.303 7.889.544v7.058h3.81v-7.122c0-8.787-9.979-6.876-12.003-4.847v-1.549h-3.495V26.33h-.011ZM0 35.416h3.81V3.758H0v31.658ZM80.097 41H3.81v-5.638h70.238L80.098 41Zm0-37.242V0H3.81v3.758h76.287Zm26.57 21.024v1.516h3.463V12.813h-3.81v7.911c0 2.723-4.664 3.428-6.785 1.602-.617-.513-1.018-1.303-1.018-2.456l-.01-7.058h-3.81v7.667c0 2.52 1.136 4.452 2.976 5.424 2.37 1.249 7.219.886 8.994-1.121Zm11.839-6.994h-2.207V7.548h-3.81V26.33h3.81v-5.125h2.175l4.297 5.029h4.48l-5.703-6.727 5.703-6.727h-4.48l-4.265 5.008ZM136.19 41H80.086V3.758h3.81v31.604h46.245L136.19 41Zm0 0H140V3.758h-3.81V41ZM31.797 21.087v-2.85l-.184-.278c-1.04-1.634-3.81-2.424-5.834-1.762-1.72.545-2.705 2.093-2.608 3.609.097 1.452 1.201 2.883 3.041 3.331 1.937.48 4.362-.277 5.368-1.73.087-.106.152-.202.217-.32Z" fill="#000"/></svg>