<svg width="404" height="348" fill="none" xmlns="http://www.w3.org/2000/svg"><g clip-path="url(#a)"><path stroke="#000" stroke-dasharray="4 4" d="M3.5 70.5h400v277H3.5z"/><path d="M206.5 224.937s-11.993-13.417-11.993-16.417c0-3 17.993 7.917 19.993 8.917s7.5 6 9 11S226 350 226 350s-8.838-.186-15.5 0c-6.444.18-17.5 0-17.5 0s7.487-66.48 7.007-69.98c-.476-3.462-2.153-5.77-4.425-8.896l-.075-.104c-1.383-1.902-2.242-2.939-4-4.5-2.88-2.557-5.181-3.047-8.5-5-1.113-1.243-2.028-2.332-2.007-4 .034-2.656 1.991-4.65 4.507-5.5-2.5-1.5-3.938-4.488-3-7.5.87-2.797 7.993-3 7.993-3s-6.993-3.5-5.493-8c1.499-4.5 12.493-1.5 12.493-1.5s-11.493-5.5-9.493-10c1.999-4.5 18.493 2.917 18.493 2.917Z" fill="#F4F1EF"/><path d="M206.5 224.937s-11.993-13.417-11.993-16.417c0-3 17.993 7.917 19.993 8.917s7.5 6 9 11S226 350 226 350s-8.838-.186-15.5 0c-6.444.18-17.5 0-17.5 0s7.487-66.48 7.007-69.98c-.481-3.5-2.191-5.821-4.5-9-1.383-1.902-2.242-2.939-4-4.5-2.88-2.557-5.181-3.047-8.5-5m23.493-36.583s13 6.083 12.007 10.083c-.993 4-21.007-3-21.007-3m9-7.083s-16.494-7.417-18.493-2.917c-2 4.5 9.493 10 9.493 10m-14.493 29.5c9.567 2.538 27.493 7 27.493 4.5s-14.493-11-24.993-14m-2.5 9.5c-1.113-1.243-2.028-2.332-2.007-4 .034-2.656 1.991-4.65 4.507-5.5m0 0c10.739 1.562 27.993 5.5 27.993 2s-23-12.5-23-12.5m-4.993 10.5c-2.5-1.5-3.938-4.488-3-7.5.87-2.797 7.993-3 7.993-3m0 0s24.507 6 24.507 2.5c-.001-3.5-17.507-12-17.507-12m-7 9.5s-6.993-3.5-5.493-8c1.499-4.5 12.493-1.5 12.493-1.5" stroke="#000"/><path fill="#000" d="M199 139h12v136h-12z"/><path d="M210.5 266.02c-.5 3.917-17.926-1.962-27.493-4.5-1.113-1.243-2.028-2.332-2.007-4 .034-2.656 1.991-4.65 4.507-5.5-2.5-1.5-3.938-4.488-3-7.5.87-2.796 7.993-3 7.993-3s-6.993-3.5-5.493-8c1.499-4.5 12.493-1.5 12.493-1.5s-11.493-5.5-9.493-10c1.999-4.5 18.493 2.917 18.493 2.917s13 6.083 12.007 10.083c-.993 4-21.007-3-21.007-3s17.506 8.5 17.507 12c0 3.5-24.507-2.5-24.507-2.5s24 8.083 23 12.5-17.254-.438-27.993-2c10.5 3 25.493 10.083 24.993 14Z" fill="#F4F1EF"/><path d="M206.5 224.937s-11.993-13.417-11.993-16.417m11.993 16.417s13 6.083 12.007 10.083c-.993 4-21.007-3-21.007-3m9-7.083s-16.494-7.417-18.493-2.917c-2 4.5 9.493 10 9.493 10m2.507 48c-.481-3.5-2.191-5.821-4.5-9-1.383-1.902-2.242-2.939-4-4.5-2.88-2.557-5.181-3.047-8.5-5m0 0c9.567 2.538 26.993 8.417 27.493 4.5s-14.493-11-24.993-14m-2.5 9.5c-1.113-1.243-2.028-2.332-2.007-4 .034-2.656 1.991-4.65 4.507-5.5m0 0c10.739 1.562 26.993 6.417 27.993 2s-23-12.5-23-12.5m-4.993 10.5c-2.5-1.5-3.938-4.488-3-7.5.87-2.796 7.993-3 7.993-3m0 0s24.507 6 24.507 2.5c-.001-3.5-17.507-12-17.507-12m-7 9.5s-6.993-3.5-5.493-8c1.499-4.5 12.493-1.5 12.493-1.5" stroke="#000"/><path d="m229.5 296.5-37-7-7 69h44v-62Z" fill="#000" stroke="#000"/><path d="m229.5 296.5-37-7L191 304l38.5 8.5v-16Z" fill="#000"/><mask id="b" fill="#fff"><path fill-rule="evenodd" clip-rule="evenodd" d="m55.052 296.452-.002-.001-8.106-4.631-9.508 16.293 16.38 9.357 8.107 4.63 4.483-7.682.002.001 9.507-16.293-16.38-9.356-4.483 7.682Z"/></mask><path d="m55.05 296.451.248-.434-.432-.247-.249.431.433.25Zm.002.001-.248.434.43.246.25-.428-.432-.252Zm-.002-.001-.248.434.432.247.249-.431-.433-.25Zm-8.106-4.631.248-.434-.43-.245-.25.427.432.252Zm-9.508 16.293-.431-.252-.255.436.438.251.248-.435Zm16.38 9.357-.248.434.248-.434Zm8.107 4.63-.248.435.43.245.25-.428-.432-.252Zm4.483-7.682.247-.434-.43-.246-.25.428.433.252Zm.002.001-.248.435.43.245.25-.428-.432-.252Zm9.507-16.293.432.252.254-.436-.438-.25-.248.434Zm-16.38-9.356.248-.434-.43-.246-.25.428.432.252Zm-4.918 7.431.866.5-.866-.5Zm0 0 .866.5-.866-.5Zm.681-.184-1.013-.579-.496.868 1.013.579.496-.868Zm-3.04-1.737-2.027-1.157-.495.868 2.026 1.158.496-.869Zm-4.053-2.315-1.013-.579-.496.869 1.013.578.496-.868Zm-1.693-.397-.476.815.864.504.475-.815-.863-.504Zm-1.426 2.444-.951 1.63.864.504.95-1.63-.863-.504Zm-1.902 3.259-.95 1.629.863.504.95-1.629-.863-.504Zm-1.901 3.259-.951 1.629.864.504.95-1.629-.863-.504Zm-1.902 3.258-.95 1.629.863.504.951-1.629-.864-.504Zm-1.901 3.259-.475.814.863.504.476-.814-.864-.504Zm-.292 1.501.82.467.495-.868-.819-.468-.496.869Zm2.457 1.403 1.638.936.496-.869-1.638-.935-.496.868Zm3.276 1.871 1.638.936.496-.868-1.638-.936-.496.868Zm3.276 1.872 1.638.935.496-.868-1.638-.936-.496.869Zm3.276 1.871 1.638.936.496-.869-1.638-.935-.496.868Zm3.276 1.871.82.468.495-.868-.819-.468-.496.868Zm.82.468 1.013.579.496-.868-1.014-.579-.496.868Zm3.04 1.737 2.026 1.157.496-.868-2.027-1.158-.496.869Zm4.052 2.315 1.014.579.496-.869-1.014-.579-.495.869Zm1.694.396.56-.96-.864-.504-.56.96.864.504Zm1.68-2.88 1.121-1.921-.863-.504-1.121 1.921.864.504Zm2.242-3.842.56-.96-.863-.504-.56.96.863.504Zm-.12-.778.001.001.496-.869-.496.868Zm.002.001v.001l.496-.869-.496.868Zm.68-.182.476-.814-.864-.504-.475.814.864.504Zm1.427-2.444.95-1.629-.863-.504-.951 1.629.864.504Zm1.901-3.258.95-1.63-.863-.504-.95 1.63.863.504Zm1.901-3.259.951-1.629-.864-.504-.95 1.629.864.504Zm1.902-3.258.95-1.63-.863-.504-.95 1.63.863.504Zm1.901-3.259.476-.815-.864-.504-.475.815.863.504Zm.292-1.501-.82-.468-.495.869.819.467.496-.868Zm-2.457-1.403-1.638-.936-.496.868 1.638.936.496-.868Zm-3.276-1.872-1.638-.935-.496.868 1.638.936.496-.869Zm-3.276-1.871-1.638-.936-.496.869 1.638.935.496-.868Zm-3.276-1.871-1.638-.936-.496.868 1.638.936.496-.868Zm-3.276-1.872-.82-.467-.495.868.819.468.496-.869Zm-1.499-.285-.56.96.863.504.56-.96-.863-.504Zm-1.681 2.881-1.12 1.92.863.504 1.12-1.92-.863-.504Zm-2.241 3.841-.56.96.863.504.56-.96-.863-.504Zm.12.778H55.3l-.496.868.496-.868Zm-.003-.001-.496.868.496-.868Zm-.248.434.496-.868-.864-.494-.498.862.866.5Zm.002.001-.496.868.86.492.5-.856-.864-.504Zm-.002-.001-.496.868.864.494.498-.862-.866-.5Zm-8.106-4.631.496-.868-.86-.491-.5.855.864.504Zm-9.508 16.293-.863-.504-.509.872.876.501.496-.869Zm16.38 9.357-.496.868.496-.868Zm8.107 4.63-.496.869.86.491.5-.856-.864-.504Zm4.483-7.682.495-.868-.86-.491-.5.855.865.504Zm.002.001-.496.869.86.491.5-.856-.864-.504Zm9.507-16.293.864.504.508-.871-.876-.501-.496.868Zm-16.38-9.356.496-.869-.86-.491-.5.856.864.504Zm-5.351 7.181 1.732 1-1.732-1Zm0 0 1.732 1-1.732-1Zm1.362-.368-1.013-.579-.992 1.736 1.013.579.992-1.736Zm-3.04-1.737-2.026-1.157-.992 1.736 2.026 1.158.992-1.737Zm-4.053-2.315-1.013-.579-.992 1.737 1.013.579.992-1.737Zm-2.373-.215-.475.815 1.727 1.008.475-.815-1.727-1.008Zm-1.426 2.444-.95 1.63 1.727 1.008.95-1.63-1.727-1.008Zm-1.902 3.259-.95 1.629 1.727 1.008.95-1.629-1.727-1.008Zm-1.901 3.259-.95 1.629 1.727 1.008.95-1.629-1.727-1.008Zm-1.901 3.258-.951 1.629 1.727 1.008.95-1.629-1.727-1.008Zm-1.902 3.259-.475.814 1.727 1.008.476-.814-1.728-1.008Zm-.108 2.187.82.468.991-1.737-.819-.468-.992 1.737Zm2.457 1.403 1.638.936.992-1.737-1.638-.935-.992 1.736Zm3.276 1.872 1.638.935.992-1.736-1.638-.936-.992 1.737Zm3.276 1.871 1.638.935.992-1.736-1.638-.936-.992 1.737Zm3.276 1.871 1.638.936.992-1.737-1.638-.936-.992 1.737Zm3.276 1.871.82.468.991-1.736-.819-.468-.992 1.736Zm.82.468 1.013.579.992-1.737-1.014-.578-.992 1.736Zm3.04 1.737 2.026 1.157.992-1.736-2.027-1.158-.992 1.737Zm4.053 2.315 1.013.579.992-1.737-1.014-.579-.992 1.737Zm2.372.214.56-.96-1.727-1.008-.56.96 1.727 1.008Zm1.681-2.88 1.121-1.921-1.727-1.008-1.12 1.921 1.727 1.008Zm2.242-3.842.56-.96-1.727-1.008-.56.96 1.727 1.008Zm-.8-.595h.001l.992-1.737-.992 1.737Zm.002 0v.001l.992-1.737-.992 1.736Zm1.36-.364.476-.814-1.728-1.008-.475.814 1.727 1.008Zm1.427-2.444.95-1.629-1.727-1.008-.951 1.629 1.728 1.008Zm1.9-3.258.952-1.63-1.728-1.008-.95 1.63 1.727 1.008Zm1.902-3.259.951-1.629-1.727-1.008-.951 1.629 1.727 1.008Zm1.902-3.258.95-1.63-1.727-1.008-.95 1.63 1.727 1.008Zm1.901-3.259.476-.815-1.728-1.008-.475.815 1.727 1.008Zm.108-2.187-.82-.468-.991 1.737.819.468.992-1.737Zm-2.457-1.403-1.638-.936-.992 1.737 1.638.935.992-1.736Zm-3.276-1.872-1.638-.935-.992 1.736 1.638.936.992-1.737Zm-3.276-1.871-1.638-.936-.992 1.737 1.638.936.992-1.737Zm-3.276-1.871-1.638-.936-.992 1.737 1.638.935.992-1.736Zm-3.276-1.872-.82-.468-.991 1.737.819.468.992-1.737Zm-2.179-.103-.56.96 1.727 1.008.56-.96-1.727-1.008Zm-1.68 2.881-1.121 1.92 1.727 1.008 1.12-1.92-1.727-1.008Zm-2.242 3.841-.56.96 1.727 1.008.56-.96-1.727-1.008Zm.8.596-.001-.001-.992 1.737.992-1.736Zm-.002-.001h-.001l-.992 1.736v.001l.992-1.737Z" fill="#AAE2BF" mask="url(#b)"/><path stroke="#AAE2BF" d="m3.183 155.683 30.31 17.5-17.5 30.31-30.31-17.5z"/><path stroke="#AAE2BF" stroke-dasharray="4 4" d="m384.183 59.683 30.31 17.5-17.5 30.31-30.31-17.5z"/><path d="m379.451 296.835-14.938-7.16-1.538 17.086-14.926-7.166-.886 16.694m-5.399-191.423-3.299 26.544-3.299-26.544h6.598Zm-6.598 61.197 3.299-26.544 3.298 26.544h-6.597Zm33.897-27.299-26.544-3.299 26.544-3.298v6.597Zm-61.197-6.599 26.544 3.299-26.544 3.299v-6.598Zm49.859 27.249-16.437-21.127 21.126 16.437-4.689 4.69Zm-43.251-4.69 21.127-16.438-16.438 21.127-4.689-4.689Zm47.941-38.561-21.127 16.438 16.438-21.127 4.689 4.689Zm-43.252-4.689 16.438 21.127-21.127-16.438 4.689-4.689ZM103.436 249v-51m21.117 51v-51M89 212.436h51m-51 21.117h51" stroke="#000"/><circle cx="281" cy="235" r="21.5" stroke="#AAE2BF" stroke-dasharray="4 4"/><circle cx="73" cy="128" r="30.5" stroke="#000" stroke-dasharray="2 2"/></g><path stroke="#000" stroke-dasharray="4 4" d="M3.5 70.5h400v277H3.5z"/><path d="m319.515 22.121.083.331.338.044 26.564 3.443V144.5h-284V.5h251.61l5.405 21.621Z" fill="#fff" stroke="#000"/><mask id="c" fill="#fff"><path fill-rule="evenodd" clip-rule="evenodd" d="m268.49 52 8.411 8.333 8.011-7.937 16.99 16.834-16.99 16.834-.002-.001L276.899 94l-16.991-16.834-8.408-8.332L268.49 52Z"/></mask><path fill-rule="evenodd" clip-rule="evenodd" d="m268.49 52 8.411 8.333 8.011-7.937 16.99 16.834-16.99 16.834-.002-.001L276.899 94l-16.991-16.834-8.408-8.332L268.49 52Z" fill="#AAE2BF"/><path d="m276.901 60.333-.704.71.704.698.704-.697-.704-.71ZM268.49 52l.704-.71-.704-.698-.703.698.703.71Zm16.422.396.703-.71-.703-.698-.704.697.704.71Zm16.99 16.834.704.71.717-.71-.717-.71-.704.71Zm-16.99 16.834-.704.71.704.698.703-.697-.703-.71Zm-.002-.001.703-.71-.703-.698-.704.697.704.71ZM276.899 94l-.704.71.704.698.703-.698-.703-.71Zm-16.991-16.834-.7-.715-.725.71.721.715.704-.71Zm0 0 .7.714.725-.71-.721-.715-.704.71Zm-8.408-8.332-.704-.71-.717.71.717.71.704-.71Zm26.105-9.211-8.411-8.333-1.407 1.42 8.41 8.334 1.408-1.421Zm6.603-7.938-8.011 7.938 1.408 1.42 8.01-7.937-1.407-1.42Zm18.398 16.835-16.991-16.835-1.407 1.421 16.99 16.834 1.408-1.42Zm-16.991 18.255 16.991-16.835-1.408-1.42-16.99 16.834 1.407 1.42Zm-1.409-.002.002.002 1.407-1.42-.002-.003-1.407 1.42Zm0-1.42-8.011 7.937 1.407 1.42 8.011-7.937-1.407-1.42Zm-6.604 7.937-16.99-16.835-1.408 1.42 16.991 16.835 1.407-1.42Zm-16.994-15.41-1.4-1.429 1.4 1.429Zm-9.812-8.335 8.408 8.33 1.408-1.42-8.408-8.33-1.408 1.42Zm16.991-18.255-16.991 16.834 1.408 1.42 16.99-16.834-1.407-1.42Z" fill="#000" mask="url(#c)"/><path fill="#fff" stroke="#000" d="M180.807 41.5h49.458v64.299h-49.458z"/><path fill="#000" d="M187.73 51.448h35.378v1H187.73zm0 8.157h35.378v1H187.73zm.413 7.515h26.12v1h-26.12zm0 14.365h18.283v1.306h-18.283zm0 3.649h18.283v1.306h-18.283zm.212 3.648h13.499v1.306h-13.499zm12.845 5.54 1.877-1.083 11.615 20.118-1.876 1.083z"/><circle cx="197.687" cy="87.113" r="13.68" transform="rotate(-30 197.687 87.113)" fill="#000"/><circle cx="197.686" cy="87.113" r="11.367" transform="rotate(-30 197.686 87.113)" fill="#fff"/><path stroke="#AAE2BF" stroke-width="2" d="M188 83h13.06M188 86.918h18.284M188 90.836h14.366"/><path d="m132.79 74.92-4.675-.46-2.864 19.367 4.485.712 3.054-19.62Z" fill="#000"/><path d="M110.701 47.972 107.458 35m-3.243 15.566-9.08-8.431m4.54 14.917L88.001 53.81m11.674 11.026-11.674 3.243m15.566 3.892-8.432 7.783" stroke="#AAE2BF"/><mask id="d" fill="#fff"><path fill-rule="evenodd" clip-rule="evenodd" d="M150.286 65.742 118.92 51.019l.425-.905 31.781 14.917.415.195-.158.43-3.892 10.58-.134.363-.385-.039-34.375-3.444.099-.995 33.99 3.406 3.6-9.785Z"/></mask><path fill-rule="evenodd" clip-rule="evenodd" d="M150.286 65.742 118.92 51.019l.425-.905 31.781 14.917.415.195-.158.43-3.892 10.58-.134.363-.385-.039-34.375-3.444.099-.995 33.99 3.406 3.6-9.785Z" fill="#AAE2BF"/><path d="m150.286 65.742.425-.906.83.39-.317.86-.938-.344ZM118.92 51.019l-.425.905-.905-.425.425-.905.905.425Zm.425-.905-.905-.425.425-.906.905.425-.425.906Zm31.781 14.917.425-.905-.425.905Zm.415.195.425-.905.83.39-.316.86-.939-.345Zm-.158.43.938.346-.938-.346Zm-3.892 10.58.939.345-.939-.346Zm-.134.363.939.345-.267.727-.771-.077.099-.995Zm-.385-.039-.1.995.1-.995Zm-34.375-3.444-.1.995-.995-.1.1-.995.995.1Zm.099-.995-.995-.1.1-.995.995.1-.1.995Zm33.99 3.406.939.345-.268.727-.77-.077.099-.995Zm3.175-8.88-31.366-14.723.85-1.81 31.366 14.722-.85 1.81Zm-31.846-16.053.425-.905 1.81.85-.425.905-1.81-.85Zm1.755-1.386 31.781 14.918-.85 1.81L118.92 51.02l.85-1.81Zm31.781 14.918.415.195-.85 1.81-.415-.195.85-1.81Zm.929 1.445-.159.43-1.877-.69.158-.43 1.878.69Zm-.159.43-3.891 10.58-1.877-.69 3.891-10.58 1.877.69Zm-3.891 10.58-.134.363-1.877-.69.134-.364 1.877.69Zm-1.172 1.013-.386-.039.2-1.99.385.039-.199 1.99Zm-.386-.039-34.375-3.444.199-1.99 34.376 3.444-.2 1.99Zm-35.27-4.539.099-.995 1.99.2-.099.995-1.99-.2Zm1.194-1.89 33.99 3.406-.199 1.99-33.99-3.406.199-1.99Zm32.952 4.056 3.599-9.786 1.877.69-3.599 9.786-1.877-.69Z" fill="#000" mask="url(#d)"/><path d="m149.5 63.5 2 1-4.5 13-2-.528 4.5-13.472Zm-33.366-17.11L120 48.5 112.999 74H109l7.134-27.61Zm229.224-21.542-25.864-2.37-4.239-21.25 30.103 23.62Z" fill="#000" stroke="#000"/><defs><clipPath id="a"><path fill="#fff" d="M3 70h401v278H3z"/></clipPath></defs></svg>