<svg width="497" height="321" fill="none" xmlns="http://www.w3.org/2000/svg"><path fill="#F4F1EF" stroke="#000" stroke-width="1.338" d="M.847.669h480.5v318.548H.847z"/><path fill="#AAE2BF" d="M323 240h79v78h-79z"/><path stroke="#000" stroke-width="1.338" d="M402.378 1.338v318.549M322.072 1.338v318.549M161.459 1.338v318.549M241.765 1.338v318.549M81.153 1.338v318.549M.177 238.911h480.499M.177 158.605h480.499M.177 78.299h480.499"/><mask id="a" fill="#fff"><path fill-rule="evenodd" clip-rule="evenodd" d="m480.394 174.879-17.749-6.008-2.575 7.606-7.607-2.575-1.287 3.804-3.804-1.288 2.146-6.339-17.749-6.008-10.729 31.694 17.749 6.009 2.575-7.607 3.804 1.287-1.717 5.072 7.607 2.574-30.899 91.28 17.749 6.008 30.899-91.28 9.013 3.051 1.508-4.456c.874.173 5.493 1.139 8.096 2.762 3.5 2.182 7.362 9.557 7.362 9.557s5.131-10.98-1.803-21.806c-2.243-3.502-6.869-7.506-7.672-8.188l1.521-4.492-9.013-3.051 2.575-7.606Z"/></mask><path fill-rule="evenodd" clip-rule="evenodd" d="m480.394 174.879-17.749-6.008-2.575 7.606-7.607-2.575-1.287 3.804-3.804-1.288 2.146-6.339-17.749-6.008-10.729 31.694 17.749 6.009 2.575-7.607 3.804 1.287-1.717 5.072 7.607 2.574-30.899 91.28 17.749 6.008 30.899-91.28 9.013 3.051 1.508-4.456c.874.173 5.493 1.139 8.096 2.762 3.5 2.182 7.362 9.557 7.362 9.557s5.131-10.98-1.803-21.806c-2.243-3.502-6.869-7.506-7.672-8.188l1.521-4.492-9.013-3.051 2.575-7.606Z" fill="#fff"/><path d="m462.645 168.871.429-1.268-1.268-.429-.429 1.267 1.268.43Zm17.749 6.008 1.267.429.43-1.268-1.268-.429-.429 1.268Zm-20.324 1.598-.429 1.268 1.268.429.429-1.268-1.268-.429Zm-7.607-2.575.43-1.267-1.268-.43-.429 1.268 1.267.429Zm-1.287 3.804-.429 1.267 1.268.43.429-1.268-1.268-.429Zm-3.804-1.288-1.267-.429-.43 1.268 1.268.429.429-1.268Zm2.146-6.339 1.268.429.429-1.267-1.268-.429-.429 1.267Zm-17.749-6.008.429-1.268-1.267-.429-.43 1.268 1.268.429Zm-10.729 31.694-1.267-.429-.43 1.268 1.268.429.429-1.268Zm17.749 6.009-.429 1.267 1.268.43.429-1.268-1.268-.429Zm2.575-7.607.429-1.268-1.267-.429-.43 1.268 1.268.429Zm3.804 1.287 1.268.43.429-1.268-1.268-.429-.429 1.267Zm-1.717 5.072-1.267-.43-.43 1.268 1.268.429.429-1.267Zm7.607 2.574 1.268.429.429-1.267-1.268-.429-.429 1.267Zm-30.899 91.28-1.268-.429-.429 1.268 1.268.429.429-1.268Zm17.749 6.008-.43 1.268 1.268.429.429-1.268-1.267-.429Zm30.899-91.28.429-1.267-1.268-.429-.429 1.267 1.268.429Zm9.013 3.051-.429 1.268 1.267.429.429-1.267-1.267-.43Zm1.508-4.456.259-1.313-1.15-.227-.377 1.111 1.268.429Zm8.096 2.762-.708 1.136.708-1.136Zm7.362 9.557-1.185.621 1.254 2.395 1.144-2.449-1.213-.567Zm-1.803-21.806 1.127-.722-1.127.722Zm-7.672-8.188-1.267-.429-.292.86.692.589.867-1.02Zm1.521-4.492 1.268.429.429-1.267-1.268-.43-.429 1.268Zm-9.013-3.051-1.268-.429-.429 1.268 1.268.429.429-1.268Zm-15.603-12.347 17.748 6.008.859-2.535-17.749-6.008-.858 2.535Zm-.878 6.768 2.575-7.606-2.536-.859-2.575 7.607 2.536.858Zm-9.304-1.736 7.607 2.575.858-2.536-7.606-2.574-.859 2.535Zm.41 2.965 1.287-3.804-2.535-.858-1.288 3.803 2.536.859Zm-5.501-.449 3.804 1.287.858-2.535-3.804-1.288-.858 2.536Zm1.307-8.036-2.145 6.339 2.535.858 2.146-6.339-2.536-.858Zm-16.91-4.311 17.749 6.008.858-2.535-17.749-6.009-.858 2.536Zm-9.032 30.856 10.729-31.695-2.536-.858-10.728 31.694 2.535.859Zm16.91 4.311-17.748-6.008-.859 2.535 17.749 6.008.858-2.535Zm.878-6.768-2.575 7.606 2.536.859 2.575-7.607-2.536-.858Zm5.501.449-3.804-1.288-.858 2.536 3.804 1.287.858-2.535Zm-.878 6.768 1.717-5.071-2.536-.859-1.716 5.071 2.535.859Zm6.768.878-7.607-2.575-.858 2.535 7.607 2.575.858-2.535Zm-30.06 92.976 30.899-91.28-2.536-.858-30.899 91.28 2.536.858Zm16.91 4.311-17.749-6.008-.858 2.536 17.748 6.008.859-2.536Zm29.202-90.441-30.899 91.28 2.535.858 30.899-91.279-2.535-.859Zm10.71 2.213-9.013-3.051-.859 2.535 9.014 3.051.858-2.535Zm-.189-3.618-1.508 4.456 2.535.859 1.509-4.456-2.536-.859Zm10.072 2.055c-1.462-.911-3.411-1.599-5.028-2.073a42.202 42.202 0 0 0-3.517-.866l-.518 2.626a39.46 39.46 0 0 1 3.282.809c1.562.458 3.224 1.064 4.365 1.776l1.416-2.272Zm6.654 10.693 1.186-.621-.001-.002a.022.022 0 0 1-.003-.005 52.805 52.805 0 0 0-2.435-4.071c-1.397-2.108-3.376-4.732-5.401-5.994l-1.416 2.272c1.476.92 3.177 3.075 4.586 5.201a50.333 50.333 0 0 1 2.137 3.541l.123.227.03.057.007.013.002.003v.001l1.185-.622Zm-2.93-21.084c3.263 5.094 3.691 10.222 3.297 14.106a24.227 24.227 0 0 1-.951 4.696 18.578 18.578 0 0 1-.588 1.626l-.034.075a.052.052 0 0 1-.007.015v.002-.001c.001-.001.001-.001 1.213.565 1.213.567 1.213.566 1.214.566v-.002l.002-.003a.273.273 0 0 1 .02-.043l.049-.113a21.033 21.033 0 0 0 .687-1.892c.393-1.266.84-3.066 1.058-5.221.438-4.313-.035-10.088-3.706-15.82l-2.254 1.444Zm-7.412-7.89c.824.7 5.293 4.582 7.412 7.89l2.254-1.444c-2.368-3.697-7.151-7.822-7.932-8.486l-1.734 2.04Zm1.12-5.941-1.52 4.492 2.535.858 1.521-4.492-2.536-.858Zm-8.174-1.354 9.013 3.051.858-2.536-9.013-3.051-.858 2.536Zm1.736-9.303-2.575 7.606 2.536.858 2.574-7.606-2.535-.858Z" fill="#000" mask="url(#a)"/><path fill="#fff" d="M322.741 1.338h78.968v76.291h-78.968z"/><path fill="#fff" stroke="#000" stroke-width="1.338" d="M81.153 78.299h121.798v160.613H81.153z"/><path fill-rule="evenodd" clip-rule="evenodd" d="m52.357 34.8 7.914 8.622-1.013 8.278-9.312-.153-7.585-8.216-.693 12.462 8.278 7.617 11.927-2.058 30.728 36.395-2.466 9.282 6.924 9.693 12.463.693-7.915-8.622 1.013-8.279 9.312.153 6.261 7.745-1.041-13.615-7.351-6.304-9.25 1.997-31.068-36.797 2.26-8.508-6.923-9.693-12.463-.693Z" fill="#fff"/><path d="m60.27 43.422.494-.453.209.227-.038.307-.664-.081Zm-7.913-8.623-.493.453-1.113-1.212 1.643.091-.037.668ZM59.258 51.7l.664.081-.073.598-.602-.01.011-.669Zm-9.312-.153-.011.669-.287-.005-.194-.21.492-.454ZM42.36 43.33l-.668-.037.087-1.579 1.072 1.162-.491.454Zm-.693 12.462-.453.493-.233-.214.018-.316.668.038Zm8.278 7.617.114.66-.325.055-.242-.223.453-.492Zm11.927-2.058-.113-.66.377-.065.248.293-.512.432ZM92.6 97.746l.512-.432.225.267-.09.337-.647-.172Zm-2.466 9.282-.545.389-.183-.256.081-.305.647.172Zm6.924 9.693-.037.668-.321-.017-.187-.262.545-.389Zm12.463.693.493-.453 1.112 1.212-1.643-.091.038-.668Zm-7.915-8.622-.493.452-.208-.227.037-.307.664.082Zm1.013-8.279-.664-.081.073-.598.602.01-.011.669Zm9.312.153.011-.669.313.005.197.244-.521.42Zm6.261 7.745.667-.051.164 2.143-1.352-1.672.521-.42Zm-1.041-13.615.436-.508.21.18.021.277-.667.051Zm-7.351-6.304-.142-.654.325-.07.252.216-.435.508Zm-9.25 1.997.141.655-.393.085-.26-.308.512-.432ZM69.483 53.693l-.512.431-.225-.266.09-.337.647.172Zm2.26-8.508.545-.389.183.256-.08.305-.648-.172Zm-6.923-9.693.037-.668.32.017.187.262-.544.389Zm-5.042 8.382-7.914-8.622.986-.905 7.914 8.622-.986.905Zm-1.184 7.745 1.013-8.279 1.328.163-1.013 8.279-1.328-.163Zm-8.637-.741 9.312.153-.022 1.338-9.312-.153.022-1.338Zm-7.105-8.001 7.586 8.216-.984.908-7.585-8.216.983-.908ZM41 55.757l.693-12.463 1.336.074-.693 12.463L41 55.756Zm8.493 8.145-8.278-7.616.906-.985 8.278 7.616-.906.985Zm12.494-1.89L50.06 64.069l-.228-1.319 11.928-2.057.227 1.319Zm.398-1.092 30.728 36.395-1.023.864-30.728-36.395 1.023-.864Zm30.863 37-2.466 9.282-1.294-.344 2.466-9.282 1.294.344Zm-2.569 8.721 6.924 9.693-1.089.778-6.924-9.693 1.09-.778Zm6.417 9.414 12.463.692-.075 1.337-12.462-.693.074-1.336Zm11.933 1.813-7.915-8.622.986-.905 7.915 8.622-.986.905Zm-8.086-9.156 1.013-8.278 1.329.162-1.013 8.279-1.329-.163Zm1.688-8.866 9.312.153-.022 1.338-9.312-.153.022-1.338Zm9.822.402 6.26 7.744-1.041.841-6.26-7.744 1.041-.841Zm5.073 8.216-1.041-13.615 1.334-.102 1.041 13.615-1.334.102Zm-.81-13.158-7.351-6.304.871-1.016 7.352 6.304-.872 1.016Zm-6.774-6.158-9.25 1.998-.283-1.309 9.25-1.997.283 1.308Zm-9.903 1.775L68.971 54.125l1.023-.864 31.068 36.798-1.023.863ZM72.39 45.357l-2.26 8.508-1.294-.344 2.26-8.508 1.294.344Zm-7.026-10.254 6.924 9.693-1.09.778-6.923-9.693 1.09-.778Zm-12.97-.972 12.463.693-.075 1.336-12.462-.692.074-1.337Z" fill="#000"/><circle r="6.692" transform="matrix(-1 0 0 1 105.583 103.729)" fill="#AAE2BF" stroke="#000" stroke-width="1.338"/><path d="M68.782 64.347c-4.159 0-24.495 23.045-24.495 23.045l-22.177 9.51 6.93 9.511L40.13 120l13.86-8.152S91.058 96 90.147 94c-.911-2-1.1-1.655-6.646-2.5-5.545-.845 21.544-13.641 16-15-5.544-1.359-16.857 6.816-19.63 5.457C77.1 80.6 100.5 71.5 98.2 67.731 95.897 63.963 68.782 79.24 68.782 79.24S92.92 63.449 90.146 62.09c-2.773-1.359-28.294 13.074-28.294 13.074s11.09-10.817 6.93-10.817Z" fill="#F4F1EF" stroke="#000" stroke-width="1.89"/><path d="m28.358 90.502 15.834 30.75L1 157.594V103.5l27.358-12.998Z" fill="#000"/><path fill="#AAE2BF" d="M1.515 239.581h78.968v78.968H1.515z"/><path fill="#AAE2BF" stroke="#000" stroke-width="1.338" d="m276.465 76.906-21.667 80.86-14.22-3.811 21.665-80.86z"/><path d="M277.962 176.583c2.747.538-2.5 17.5-2.5 17.5l-5.5 13.5-9.012 22.241-21.111-15.153-4.219 4.281L238 172.5l6.172 24.307s5.154-14.785 5.79-20.224c.637-5.438 3.867-24.659 6.5-25 2.633-.34 0 30 0 30s4.028-36.293 7-34c2.973 2.294 1.149 38 1.149 38s2.548-24.976 5.351-24c2.803.977 1.785 27.859 1.785 27.859s3.469-13.396 6.215-12.859Z" fill="#F4F1EF" stroke="#000" stroke-width="1.338"/><path d="M232.5 213s-34.978 72.529-54.95 105.368h54.95l36-97.368-36-8Z" fill="#000" stroke="#000" stroke-width="1.338"/><path fill="#F4F1EF" stroke="#000" stroke-width="1.338" d="M402.378 238.911h78.968v80.306h-78.968z"/><path fill="#AAE2BF" stroke="#000" stroke-width="1.338" d="M292.626 67.591v91.014h-14.723V67.591zm14.724 0v91.014h-14.724V67.591z"/><path d="m162.128 1.338 78.968 76.291" stroke="#000" stroke-width="1.338"/><path fill="#AAE2BF" stroke="#000" stroke-width="1.338" d="M322.072 67.591v91.014H307.35V67.591z"/><path d="m322 239 80 80m0-80-80 80m-161.21-79.419-80.307 80.306" stroke="#000" stroke-width="1.338"/><path fill="#000" d="M97.883 127.362h87.463v1.338H97.883zm0 20.166h87.463v1.338H97.883zm0 20.167h87.463v1.338H97.883zm0 20.166h62.144v1.338H97.883zm53.807 27.89h30.971v1.338H151.69zm9.291-8.024h21.68v1.338h-21.68z"/><path d="m170.563 96.104-4.42 2.69 4.42 3.227m9.822-5.917 4.421 2.69-4.421 3.227m-2.455-6.991-4.911 7.53" stroke="#000" stroke-width="1.338" stroke-linecap="square"/><mask id="b" style="mask-type:alpha" maskUnits="userSpaceOnUse" x="402" y="34" width="65" height="45"><path fill="#C4C4C4" d="M402 34h64.221v44.046H402z"/></mask><g mask="url(#b)"><path d="M419.788 94.504c-4.536 0-8.624-.84-12.264-2.52-3.584-1.736-6.692-4.06-9.324-6.972a33.195 33.195 0 0 1-5.964-9.912 33.179 33.179 0 0 1-2.016-11.424c0-3.696.644-7.308 1.932-10.836a28.856 28.856 0 0 1 5.712-9.492c2.576-2.856 5.712-5.124 9.408-6.804 3.752-1.68 8.092-2.52 13.02-2.52 5.656 0 10.556 1.204 14.7 3.612 4.144 2.408 7.224 5.544 9.24 9.408l-10.584 7.392c-.896-2.072-2.1-3.696-3.612-4.872-1.512-1.232-3.164-2.072-4.956-2.52-1.736-.504-3.444-.756-5.124-.756-4.032 0-7.308 1.12-9.828 3.36-2.464 2.24-4.088 5.04-4.872 8.4h19.656v11.004H404.92c.336 2.52 1.204 4.788 2.604 6.804a16.667 16.667 0 0 0 5.376 4.704c2.184 1.12 4.592 1.68 7.224 1.68 1.68 0 3.416-.252 5.208-.756a13.888 13.888 0 0 0 4.872-2.688c1.512-1.232 2.688-2.828 3.528-4.788l11.256 6.636c-1.232 2.968-3.192 5.488-5.88 7.56-2.688 2.016-5.768 3.584-9.24 4.704-3.416 1.064-6.776 1.596-10.08 1.596Z" fill="#000"/></g></svg>