<svg width="99" height="23" fill="none" xmlns="http://www.w3.org/2000/svg"><path d="M71.909 15.66a8.018 8.018 0 0 1-6.822 3.765c-4.438 0-8.054-3.616-8.054-8.054 0-4.438 3.616-8.055 8.054-8.055a8.054 8.054 0 0 1 6.789 3.715l.197.313 2.531-1.595-.197-.312a10.988 10.988 0 0 0-9.32-5.112c-6.098 0-11.046 4.964-11.046 11.046 0 6.082 4.964 11.046 11.046 11.046 3.813 0 7.315-1.924 9.353-5.162l.197-.312-2.531-1.594-.197.312ZM3.415.325H.374v22.092H15.25v-3.058H3.415V.325Zm24.92-.017-9.681 22.125h3.353l7.463-17.03 7.479 17.03h3.336L30.571.308h-2.236ZM53.55.325H36.882v3.057h6.805v19.035h3.041V3.382h6.822V.325Zm38.71 9.517H80.492V.325h-3.057v22.092h3.057v-9.518h11.77v9.534h3.057V.325h-3.057v9.517Zm5.705-8.498a.537.537 0 0 0 .197-.033l.1-.164-.1-.165a.537.537 0 0 0-.197-.033h-.28v.379h.28v.016Zm-.28.608h-.147V.834h.46c.148 0 .23.033.296.066a.296.296 0 0 1 .115.247c0 .197-.148.296-.296.328l.329.477h-.18l-.346-.46h-.23v.46Zm.247-1.496c-.51 0-.904.428-.904.937 0 .51.395.937.904.937.526 0 .92-.427.92-.937 0-.526-.394-.937-.92-.937Zm0 2.006c-.591 0-1.052-.46-1.052-1.069 0-.608.46-1.068 1.052-1.068.608 0 1.069.46 1.069 1.068 0 .592-.46 1.069-1.069 1.069Z" fill="#000"/></svg>