<svg width="150" height="64" fill="none" xmlns="http://www.w3.org/2000/svg"><path d="M62.882 6.589c.21 1.376.597 2.699 1.24 3.936.305.589.698 1.12 1.298 1.456.023.01.046.017.069.026l-.025-.07c-.409-.841-.837-1.674-1.069-2.588-.097-.385-.158-.771-.113-1.168a1.52 1.52 0 0 1 .08-.339c.037-.1.097-.208.21-.222.147-.018.148.131.187.22.349.786.658 1.59 1.055 2.357.35.673.788 1.281 1.361 1.808-.12-.443-.247-.885-.362-1.33-.09-.35-.192-.7-.167-1.068a1.81 1.81 0 0 1 .06-.375c.065-.219.17-.484.4-.486.187-.001.203.287.26.46.377 1.117.687 2.26 1.254 3.305.258.476.527.943.924 1.42.019-.206.027-.347.046-.486.023-.18.043-.36.085-.535.038-.156.113-.342.284-.349.16-.006.165.2.202.318.493 1.578 1.25 3.024 2.189 4.379.096.139.206.268.305.395.11-.009.085-.095.115-.14.052-.08.086-.182.202-.176.103.005.128.104.163.177.35.709.573 1.464.823 2.21.381 1.14.62 2.322 1.068 3.441a13.481 13.481 0 0 0 1.842 3.2l.243.316c-.517-.032-.976-.024-1.386.357.517-.013.741.289.916.663.128.273.189.6.555.725-.465.28-.947.514-1.262 1.112.648-.327 1.053.152 1.584.263-.488.39-1.028.704-1.085 1.458.27-.238.522-.299.852-.215-.412.318-.516.863-1.049 1.076.456.24.848.238 1.225-.048.169-.127.34-.246.576-.295-.055.337-.119.65.06.947.112.186.19.267.328.006.292-.55.753-.877 1.368-.963.037.047.03.068 0 .09-.74.55-.989 1.284-.78 2.168.21.886.599 1.681 1.262 2.325.296.287.644.485 1.035.621-.78.907-2.487 1.498-3.771 1.011-.012.346.293.435.495.634-.6.226-1.188.178-1.768.031-.504-.127-.993-.32-1.499-.438-.4-.093-.816-.108-1.076.352-.147-.179-.118-.36-.078-.543l.006-.08-.07.03c-1.178.735-2.202.145-3.241-.39.46-.245.955-.456 1.23-.987-1.737.566-2.218.57-2.753.001.95.043 1.592-.507 2.317-1.113-.559.04-1.027.063-1.499.015a2.57 2.57 0 0 1-2.244-1.937c-.014-.058-.05-.121.005-.18l-.005.007c.838.66 1.714.667 2.657.216.911-.436 1.866-.773 2.817-1.115.118-.042.252-.052.361-.173-.244-.098-.483-.184-.714-.29-.232-.105-.463-.207-.525-.508-.028-.135-.175-.201-.307-.258-.34-.148-.646-.332-.735-.734-.01-.048-.046-.112-.086-.128-.661-.272-.93-1-1.56-1.321-.295-.15-.652-.404-.62-.76.074-.784-.477-1.2-.874-1.713-.302-.392-.56-.8-.623-1.307-.013-.108-.034-.221.015-.313.165-.312.042-.577-.126-.828-.208-.311-.333-.623-.098-.972.059-.087-.003-.141-.035-.202-.106-.208-.218-.414-.327-.62-.07-.136-.144-.3-.068-.427.177-.295 0-.503-.127-.727-.132-.23-.303-.446-.121-.733.066-.105-.049-.176-.113-.237-.231-.22-.47-.431-.708-.645a2.9 2.9 0 0 1-.536-.63c-.069-.11-.157-.25-.099-.357.176-.317-.082-.413-.244-.573-.26-.257-.665-.43-.552-.92.01-.038-.11-.116-.18-.162-.42-.278-.813-.584-1.103-1.004a.961.961 0 0 1-.194-.586c.002-.373-.262-.64-.513-.888-.647-.639-1.158-1.363-1.423-2.239-.086-.282-.185-.57-.105-.875.049-.19.13-.232.273-.065.29.34.576.685.947.945.058.041.105.106.228.095-.18-.357-.363-.697-.526-1.046-.342-.732-.584-1.486-.459-2.312.008-.052.012-.107.028-.156.055-.16.089-.383.283-.38.158 0 .138.225.183.352.295.846.613 1.68 1.203 2.377.225.265.473.506.84.688-.205-.471-.398-.89-.569-1.318-.386-.965-.663-1.954-.62-3.007.015-.359.078-.7.384-.94h.194Zm60.412 48.216c-.249.437-.44.904-.716 1.327-.09.138-.168.195-.353.177-.403-.04-.806.03-1.209.066-1.027.093-2.027.033-2.889-.623-1.536-1.168-1.693-3.653-.33-5.08 1.12-1.172 2.623-1.484 4.115-.848.303.13.586.305.924.07.081-.056.225-.04.225.153.002.414.028.829.039 1.243.001.063.045.16-.068.181-.1.019-.186.004-.239-.103-.057-.114-.123-.222-.187-.332-.879-1.517-3.115-1.7-4.055.112-.572 1.1-.659 2.257-.214 3.418.55 1.435 2.007 1.938 3.382 1.205a3.7 3.7 0 0 0 1.145-.953c.117-.146.241-.231.43-.205v.192ZM85.055 18.292c.05.146.024.276.146.372.073-.313.13-.62.217-.917.088-.296.218-.578.473-.784.121.071.057.251.21.322.026-.352.057-.698.166-1.026a2.85 2.85 0 0 1 .207-.465c.071-.129.16-.303.31-.292.149.012.061.217.124.322.043.07.043.168.153.22.19-.677.269-1.422 1.054-1.851a3.654 3.654 0 0 0-.062 1.314c.163-.287.198-.581.29-.853.112-.334.224-.665.406-.969.093-.157.209-.295.356-.406.105-.08.239-.156.352-.084.145.091-.004.212-.036.306a8.094 8.094 0 0 0-.447 2.215c.113-.326.223-.653.341-.977.107-.29.223-.577.43-.814.079-.092.179-.174.304-.117.148.066.04.193.022.278a72.015 72.015 0 0 1-.969 4.063c-.335 1.265-1.075 2.278-1.87 3.27-1.353 1.687-2.818 3.281-4.189 4.953-.278.339-.485.724-.699 1.105-.217.39-.126.806-.041 1.287-.86-.665-1.862-.642-2.79-.875a4.512 4.512 0 0 1-1.414-.642c-.142-.094-.188-.197-.148-.372.08-.353.111-.727.295-1.04.206-.348.513-.634.665-1.023.01-.027.04-.061.066-.066.394-.074.47-.488.723-.677.33-.245.635-.486.848-.836.02-.032.074-.065.109-.061.413.04.518-.294.684-.555.136-.214.285-.407.581-.36.133.021.193-.07.25-.159.122-.188.231-.384.357-.567.127-.185.257-.37.528-.355.138.007.2-.117.253-.216.13-.244.247-.493.364-.744.102-.22.232-.417.494-.45.158-.02.133-.136.162-.231.139-.457.274-.917.725-1.243ZM71.032 51.916c.808.456 1.097 1.233 1.502 1.922.274.466.528.946.868 1.37.41.513.933.828 1.6.875.095.006.191-.02.19.136-.003.147-.071.166-.198.172-.47.021-.938.02-1.4-.073-.755-.153-1.354-.542-1.757-1.21-.383-.638-.771-1.272-1.152-1.91-.34-.572-.778-.938-1.506-.835-.334.047-.683.028-1.021-.001-.222-.019-.243.065-.24.246.008.725.002 1.45.004 2.174.002.882.248 1.13 1.128 1.18.135.007.393-.138.396.134.002.307-.276.154-.42.156-1.182.013-2.366.009-3.55.005-.113 0-.273.061-.275-.157-.002-.235.174-.124.276-.142.156-.03.317-.034.474-.06.364-.06.572-.258.643-.612a3.11 3.11 0 0 0 .065-.632c-.003-2.046-.002-4.091-.002-6.137v-.128c-.02-.828-.268-1.082-1.09-1.111a1.925 1.925 0 0 0-.192 0c-.116.008-.178-.027-.176-.16.003-.126.056-.165.175-.166 1.51-.016 3.018-.23 4.53-.07.821.086 1.615.286 2.267.837 1.212 1.023 1.043 2.937-.333 3.82a3.318 3.318 0 0 1-.806.377Zm-3.11-2.302c0 .734.004 1.468-.004 2.202-.002.176.045.246.232.244.5-.007.998.014 1.495-.065.984-.156 1.626-.758 1.834-1.73.08-.38.079-.764.037-1.141-.09-.812-.494-1.416-1.274-1.718-.677-.261-1.389-.275-2.103-.246-.168.006-.226.075-.223.253.012.733.005 1.467.005 2.201Zm-37.265-2.63c1.023 0 2.047.005 3.07-.005.192-.002.26.04.252.244-.017.437-.004.874-.005 1.31-.001.1.036.219-.142.22-.158.001-.124-.099-.136-.191-.097-.75-.358-1.001-1.158-1.021-.895-.024-1.791-.002-2.687-.01-.17-.002-.187.068-.186.207.005 1.023.007 2.046-.002 3.069-.001.177.06.21.218.208.886-.006 1.77.002 2.656-.005.536-.005.76-.198.888-.728.024-.101-.02-.254.175-.23.203.025.113.18.114.273.008.714.007 1.428.001 2.142 0 .088.066.222-.122.231-.175.01-.138-.102-.154-.206-.104-.695-.323-.904-1.058-.924-.841-.022-1.685 0-2.527-.008-.165-.003-.19.06-.189.204.005 1.087-.005 2.173.006 3.26.005.57.22.793.793.884.116.018.233.047.348.043.158-.007.13.091.137.186.01.124-.06.135-.157.135-1.11-.002-2.218-.001-3.328 0-.095 0-.166-.01-.162-.135.003-.1.002-.167.134-.201.908-.239.955-.307.955-1.26v-6.201c0-.096.001-.192-.004-.288-.034-.576-.266-.818-.845-.876-.129-.013-.259.005-.247-.197.013-.213.166-.126.258-.126 1.035-.006 2.07-.004 3.104-.004Zm13.879 6.296c.466.477.673 1.066.957 1.61.118.225.24.451.385.659.168.239.39.423.691.477.13.023.182.088.17.22-.016.155-.133.11-.218.112-.865.011-1.512-.397-1.979-1.088-.32-.475-.6-.98-.862-1.488-.132-.255-.288-.339-.57-.327-.559.025-.563.007-.558.57.004.468-.026.937.032 1.404.047.366.186.509.55.528.128.006.257.003.384.003.109 0 .214-.016.215.153.002.162-.094.16-.208.16-.437-.002-.874 0-1.311 0-.544 0-1.088-.002-1.632 0-.11 0-.214.013-.215-.154-.001-.163.096-.161.209-.16.096.002.193.006.288-.005.384-.048.577-.244.579-.633.006-1.545.006-3.09 0-4.636-.002-.39-.137-.476-.668-.547-.138-.019-.387.122-.398-.157-.01-.291.26-.162.387-.175 1.207-.12 2.419-.268 3.622.018.67.16 1.236.486 1.457 1.194.277.887-.09 1.69-.932 2.094-.112.055-.23.104-.375.168Zm-1.986-1.698v.797c0 .792 0 .792.804.744.862-.052 1.304-.447 1.41-1.26.11-.845-.263-1.508-.985-1.755-.33-.112-.665-.102-1.007-.086-.193.009-.228.085-.225.253.008.435.003.871.003 1.307Zm59.623.952c.115.128.277.114.413.157 1.003.317 1.509.945 1.437 1.803-.074.877-.823 1.612-1.788 1.712-1.371.141-2.748.038-4.123.067-.092.002-.17.001-.162-.129.007-.095-.016-.184.132-.198.168-.017.335-.057.498-.102.424-.116.582-.287.585-.718.011-1.492.006-2.984.007-4.476 0-.27-.155-.406-.404-.45a5.143 5.143 0 0 0-.444-.057c-.085-.007-.144-.024-.135-.127.007-.083-.013-.179.114-.188 1.387-.104 2.777-.35 4.153.064.457.138.868.37 1.042.861.189.538-.011 1.077-.506 1.42-.249.17-.531.26-.819.36Zm-1.898 1.536c0 .233.004.468 0 .702-.019 1.04.143 1.213 1.278 1.115.748-.065 1.203-.546 1.298-1.297.099-.775-.251-1.394-.941-1.654-.466-.175-.955-.184-1.445-.175-.153.003-.195.08-.192.224.007.361.002.723.002 1.085Zm0-2.775c.03.325-.048.728.037 1.126.382.039.762.03 1.139-.044.611-.119.973-.558.98-1.188.007-.605-.316-.98-.946-1.128-.347-.08-.695-.053-1.044-.059-.157-.002-.168.079-.167.2.005.34.001.68.001 1.093Zm-4.679 1.16c0-.575.009-1.15-.002-1.726-.01-.486-.127-.6-.617-.672-.127-.019-.253-.04-.38-.045-.104-.004-.156-.031-.15-.147.004-.103.036-.162.147-.16.15.002.299 0 .448 0 .618 0 1.237-.002 1.855.002.114 0 .27-.057.273.16.003.21-.15.137-.248.14-.656.024-.829.197-.83.847 0 .97-.002 1.939.002 2.908 0 .3-.026.597-.086.888-.208.998-.798 1.559-1.868 1.732-.774.125-1.548.094-2.283-.227-.732-.32-1.163-.855-1.213-1.68-.073-1.214-.018-2.428-.034-3.64-.01-.632-.056-.681-.69-.8-.133-.025-.402.097-.389-.173.014-.298.282-.147.427-.15.874-.014 1.748-.009 2.623-.004.108 0 .265-.072.276.151.01.207-.143.139-.239.161-.124.03-.254.032-.377.063-.259.065-.474.22-.482.49-.041 1.319-.11 2.643.03 3.956.115 1.07.959 1.423 2.03 1.35.426-.028.838-.14 1.186-.411.387-.303.564-.716.578-1.193.016-.606.003-1.214.003-1.82h.01Zm-10.892 3.817h-1.503c-.12.001-.232.017-.225-.17.008-.18.126-.137.224-.14.717-.03.863-.184.864-.912v-4.122c0-.654-.195-.832-.854-.783-.032.003-.064.01-.096.011-.08.004-.175.042-.186-.098-.01-.114.02-.182.145-.196.38-.044.759-.107 1.14-.134.838-.058 1.678-.116 2.515.027 1.075.184 1.674.808 1.708 1.782.033.944-.617 1.748-1.608 1.985a2.956 2.956 0 0 1-1.484-.033c-.18-.049-.194.01-.192.157.005.522-.002 1.044.003 1.566.004.517.104.635.61.713.156.024.318.03.477.03.126.002.196.027.191.178-.004.15-.094.14-.192.14-.513-.002-1.025 0-1.537 0Zm.449-4.689v.896c0 .738.058.793.82.772.064-.002.128-.006.191-.016.625-.1 1.036-.587 1.101-1.301.086-.93-.217-1.559-.863-1.807-.348-.134-.707-.124-1.07-.11-.163.007-.184.087-.182.223.007.448.003.895.003 1.343Zm-6.764 4.689c-.81 0-1.621.001-2.431-.001-.116-.001-.271.053-.263-.167.008-.202.153-.138.255-.141.646-.02.818-.19.819-.822v-4.22c-.001-.668-.141-.813-.815-.862-.103-.007-.252.048-.256-.146-.005-.225.164-.152.273-.153 1.535-.004 3.07.002 4.606-.007.214-.002.28.063.276.27-.003.328.02.658.03.987.003.095.023.196-.13.2-.12.003-.18-.045-.197-.159-.01-.062-.018-.126-.035-.187-.16-.586-.342-.728-.945-.732-.5-.002-1.002.006-1.503-.003-.16-.004-.221.03-.219.206.01.746.01 1.492 0 2.237-.001.159.052.196.2.193.491-.008.982-.002 1.472-.003.494-.001.585-.075.683-.56.026-.128-.005-.294.218-.26.22.034.11.202.113.301.013.511.008 1.023.005 1.534 0 .096.047.216-.137.22-.175.004-.174-.088-.185-.216-.045-.534-.162-.64-.698-.643-.49-.003-.981.005-1.471-.004-.151-.002-.2.038-.198.194.008.703-.004 1.407.007 2.11.005.362.103.448.465.452.448.005.896.002 1.344 0 .635-.002.91-.192 1.125-.782.044-.119.08-.241.12-.362.043-.134.154-.089.24-.085.117.005.089.098.082.169-.04.433-.084.867-.122 1.3-.017.191-.159.137-.264.138-.822.005-1.643.004-2.464.004Zm-28.4.197c-.394.047-.792-.125-1.203-.223-.145-.035-.269-.07-.414.044-.142.11-.265.075-.286-.152-.041-.422-.108-.843-.161-1.264-.01-.07-.04-.163.074-.175.112-.011.232-.038.289.12.094.261.228.506.42.709.422.449.912.732 1.56.556.838-.226 1.144-1.116.627-1.817-.214-.288-.507-.484-.8-.678-.521-.346-1.08-.64-1.54-1.076-.496-.47-.77-1.026-.57-1.717.188-.647.648-1.047 1.294-1.194.507-.116 1.015-.048 1.5.15.163.067.312.142.501.008.117-.083.286-.071.3.167.022.37.07.74.1 1.111.006.07.08.185-.066.201-.113.014-.218.023-.277-.135a2.043 2.043 0 0 0-.471-.75c-.369-.365-.8-.563-1.328-.414-.738.207-.957 1.044-.41 1.583.412.405.918.689 1.397 1.004.32.212.644.417.912.694.601.62.761 1.405.445 2.137-.31.714-.97 1.11-1.893 1.11Zm6.877-3.687v2.205c0 .79.093.89.882.96.064.005.128.012.192.007.148-.013.14.082.145.184.006.125-.062.135-.16.135a668.446 668.446 0 0 0-3.197 0c-.118.001-.172-.026-.17-.158.001-.127.047-.163.168-.163a2.9 2.9 0 0 0 .413-.035c.547-.076.636-.178.638-.743.002-1.449 0-2.897 0-4.345 0-.697 0-.697-.712-.697-.213 0-.426-.002-.639.004-.427.013-.557.11-.7.515-.056.16-.106.322-.158.483-.035.114-.128.091-.21.09-.124-.004-.086-.09-.081-.162.03-.434.056-.87.09-1.305.018-.235.148-.272.311-.13.136.118.284.13.445.13 1.46 0 2.92.001 4.38-.002.176 0 .346.009.496-.15.097-.103.263-.093.282.125.039.455.078.91.12 1.365.008.078-.006.128-.091.127-.09 0-.192.036-.228-.105a4.912 4.912 0 0 0-.17-.544c-.116-.3-.336-.45-.665-.443-.373.008-.747.013-1.119-.003-.202-.008-.27.04-.267.257.014.8.005 1.6.005 2.398Zm54.276 1.968c-.201.468-.397.913-.581 1.363-.055.133-.135.162-.267.162-1.471-.004-2.943-.003-4.414-.003-.115 0-.241.028-.236-.163.006-.2.147-.143.252-.146.662-.022.826-.185.826-.844.001-1.396.002-2.792 0-4.188-.001-.697-.136-.833-.835-.862-.054-.003-.107-.014-.16-.01-.127.013-.165-.044-.165-.167 0-.123.061-.135.159-.135 1.056.002 2.111.003 3.168 0 .106 0 .155.03.155.143 0 .119-.042.174-.168.171a5.384 5.384 0 0 0-.575.012c-.276.025-.456.162-.462.464-.002.085-.012.17-.012.255-.001 1.502-.002 3.004 0 4.507 0 .467.047.526.521.567.446.038.894.036 1.337-.046.526-.098.805-.49 1.045-.91.095-.166.194-.241.412-.17Zm2.571 1.522c-.491 0-.982-.001-1.472.001-.096.001-.169-.007-.166-.13.003-.1.002-.166.142-.192.82-.153.887-.229.899-1.085.014-.926.007-1.854.008-2.78v-1.088c-.003-.674-.183-.87-.852-.924-.064-.005-.137.011-.19-.014-.081-.04-.046-.132-.049-.203-.004-.12.088-.097.158-.098.993-.001 1.984 0 2.976-.002.112 0 .184.02.179.156-.005.128-.07.165-.185.157a1.283 1.283 0 0 0-.192.005c-.52.047-.675.18-.711.706-.074 1.105-.019 2.214-.027 3.32-.003.383-.032.767.023 1.148.066.456.181.578.634.655.116.02.231.049.347.049.144 0 .144.084.146.187.003.122-.067.133-.164.133-.502-.003-1.004 0-1.504 0Zm-76.59 0c-.47 0-.939.002-1.408-.001-.097 0-.217.043-.224-.137-.008-.18.094-.176.22-.182.117-.005.231-.042.348-.049.243-.013.352-.148.403-.374.074-.335.091-.674.094-1.012.008-1.14.003-2.28.003-3.421 0-.8-.127-.945-.92-1.023-.122-.012-.202-.022-.199-.174.003-.147.093-.142.194-.142.98 0 1.962.002 2.943 0 .104 0 .18 0 .182.144.002.155-.07.178-.194.169a.952.952 0 0 0-.192.006c-.518.059-.693.237-.704.758-.012.554-.006 1.109-.006 1.662-.001.821-.002 1.642 0 2.462.001.73.141.882.87.989.115.017.305-.061.282.185-.023.246-.209.13-.317.133-.458.015-.917.007-1.375.007ZM81.062 33.83c.621-.393.757-.824.49-1.419-.054-.122-.133-.223-.052-.378.053-.104-.06-.164-.16-.189-.49-.125-.724-.444-.733-.945-.003-.202-.124-.375-.193-.57.934.185 1.54.813 1.615 1.703.69-.351.784-1.025.983-1.63.26.501.09 1.51-.285 1.839-.088.077-.162.153-.141.296.14.996-.443 1.307-1.305 1.306-.053-.002-.104-.007-.22-.013Z" fill="#000"/><path d="M67.368 33.379h-.047l.002-.03.04.037.005-.007Z" fill="#B2882E"/></svg>