<svg xmlns="http://www.w3.org/2000/svg" width="120" height="120" viewBox="65 65 120 120"><path d="M111.855 98.99h-5.906l-1.035 2.408c-.255.592-.383 1.035-.383 1.328 0 .232.111.437.332.613.222.176.7.291 1.435.343v.417h-4.804v-.417c.638-.112 1.051-.258 1.237-.439.383-.359.807-1.091 1.271-2.193l5.366-12.555h.394l5.311 12.689c.428 1.021.815 1.682 1.164 1.986.35.304.834.474 1.457.512v.417h-6.019v-.417c.607-.03 1.018-.131 1.231-.304.214-.172.321-.382.321-.63 0-.33-.15-.851-.45-1.563l-.922-2.195zm-.315-.832l-2.587-6.165-2.655 6.165h5.242zM111.957 123.961c1.058.226 1.849.585 2.374 1.08.728.69 1.091 1.534 1.091 2.531 0 .758-.24 1.483-.72 2.177s-1.138 1.2-1.974 1.519c-.836.319-2.113.479-3.831.479h-7.2v-.416h.573c.638 0 1.095-.203 1.373-.608.172-.263.259-.821.259-1.676v-9.855c0-.945-.109-1.542-.327-1.789-.292-.331-.728-.495-1.305-.495h-.574v-.416h6.593c1.23 0 2.216.09 2.958.27 1.125.271 1.984.749 2.576 1.435a3.52 3.52 0 0 1 .889 2.368c0 .766-.232 1.45-.697 2.053-.465.602-1.151 1.051-2.058 1.343zm-5.895-.607c.277.052.595.092.951.118.356.027.748.04 1.175.04 1.095 0 1.918-.118 2.47-.354s.973-.598 1.266-1.086c.293-.487.439-1.02.439-1.597 0-.893-.364-1.654-1.091-2.284-.727-.631-1.789-.945-3.184-.945a7.64 7.64 0 0 0-2.025.248v5.86h-.001zm0 7.29c.87.202 1.729.304 2.576.304 1.357 0 2.393-.306 3.105-.917.713-.61 1.068-1.366 1.068-2.267 0-.593-.161-1.162-.483-1.71s-.848-.979-1.575-1.294c-.727-.314-1.627-.472-2.7-.472-.465 0-.863.008-1.192.022-.33.015-.596.042-.798.079l-.001 6.255zM115.186 143.79l.349 5.187h-.349c-.465-1.552-1.129-2.67-1.991-3.352-.862-.683-1.897-1.024-3.105-1.024-1.012 0-1.927.257-2.745.771-.817.514-1.46 1.333-1.93 2.458s-.704 2.523-.704 4.196c0 1.38.222 2.576.664 3.589.443 1.013 1.108 1.789 1.997 2.329s1.903.811 3.043.811c.99 0 1.864-.212 2.622-.636s1.59-1.266 2.498-2.526l.349.226c-.765 1.357-1.657 2.352-2.677 2.981s-2.231.945-3.634.945c-2.528 0-4.485-.938-5.873-2.813-1.034-1.395-1.552-3.037-1.552-4.928 0-1.522.341-2.922 1.023-4.196.683-1.275 1.622-2.264 2.818-2.965s2.503-1.052 3.92-1.052c1.103 0 2.19.271 3.263.811.315.166.54.248.675.248a.74.74 0 0 0 .529-.214c.195-.202.334-.483.417-.844h.393v-.002z"/><g><path d="M124.947 124.258h22.56v.48h-22.56z"/><path d="M147.507 131.458h-12v-13.92h12v.481h-11.521v12.96h11.521zM124.947 96.898h22.56v.479h-22.56z"/><path d="M147.507 104.099h-12V90.178h12v.48h-11.521v12.96h11.521zM124.947 152.099h22.56v.479h-22.56z"/><path d="M147.507 159.299h-12v-13.921h12v.48h-11.521v12.96h11.521z"/></g><g><path d="M124.227 98.578a1.44 1.44 0 0 1 0-2.88c.793 0 1.44.646 1.44 1.44 0 .794-.646 1.44-1.44 1.44zm0-2.4a.96.96 0 1 0 .96.96.962.962 0 0 0-.96-.96zM148.707 91.858c-.795 0-1.44-.646-1.44-1.44a1.44 1.44 0 1 1 1.44 1.44zm0-2.4a.96.96 0 0 0 0 1.92.96.96 0 0 0 0-1.92zM148.707 98.578a1.441 1.441 0 0 1 0-2.88 1.44 1.44 0 0 1 0 2.88zm0-2.4a.96.96 0 0 0 0 1.92c.529 0 .96-.431.96-.96a.962.962 0 0 0-.96-.96zM148.707 105.298a1.441 1.441 0 0 1 0-2.88 1.44 1.44 0 0 1 0 2.88zm0-2.4a.96.96 0 0 0 0 1.92c.529 0 .96-.431.96-.96s-.431-.96-.96-.96zM124.227 125.938a1.44 1.44 0 1 1 1.44-1.44c0 .793-.646 1.44-1.44 1.44zm0-2.4a.96.96 0 1 0 .96.96.962.962 0 0 0-.96-.96zM148.707 119.218a1.441 1.441 0 0 1 0-2.88 1.44 1.44 0 0 1 0 2.88zm0-2.4a.96.96 0 0 0 0 1.92c.529 0 .96-.431.96-.96s-.431-.96-.96-.96zM148.6 125.938a1.44 1.44 0 1 1 1.44-1.44c0 .793-.645 1.44-1.44 1.44zm0-2.4a.96.96 0 1 0 .96.96.962.962 0 0 0-.96-.96zM148.707 132.658a1.44 1.44 0 0 1-1.44-1.439c0-.795.646-1.44 1.44-1.44a1.44 1.44 0 0 1 0 2.879zm0-2.4a.961.961 0 0 0 0 1.92.96.96 0 0 0 0-1.92zM124.227 153.778a1.44 1.44 0 1 1 1.44-1.44c0 .795-.646 1.44-1.44 1.44zm0-2.4a.962.962 0 0 0 0 1.921.962.962 0 0 0 0-1.921zM148.707 147.059a1.441 1.441 0 0 1 0-2.88 1.44 1.44 0 0 1 0 2.88zm0-2.401a.96.96 0 0 0 0 1.92.96.96 0 0 0 0-1.92zM148.6 153.778a1.44 1.44 0 1 1 1.44-1.44 1.44 1.44 0 0 1-1.44 1.44zm0-2.4a.962.962 0 0 0 0 1.921.962.962 0 0 0 0-1.921zM148.707 160.498a1.44 1.44 0 0 1-1.44-1.439c0-.795.646-1.44 1.44-1.44a1.44 1.44 0 0 1 0 2.879zm0-2.399a.96.96 0 1 0 0 1.92.96.96 0 0 0 0-1.92z"/></g></svg>