<svg xmlns="http://www.w3.org/2000/svg" width="120" height="120" viewBox="65 65 120 120"><path d="M111.167 108.185l-1.768-4.809h-6.706l-1.768 4.809H99.75l5.833-15.46h1.013l5.768 15.46h-1.197zm-4.744-12.938a5.739 5.739 0 0 1-.194-.636c-.05-.18-.104-.359-.161-.539h-.043a10.63 10.63 0 0 1-.356 1.153l-2.598 7.17h5.962l-2.61-7.148zM122.506 102.882l-1.949 5.252c-.034.092-.11.148-.229.165a8.09 8.09 0 0 1-.519.038c-.194.009-.413.012-.658.012-.135 0-.203-.042-.203-.126 0-.025.004-.047.012-.063l5.797-13.896-.266-.734a.667.667 0 0 1-.025-.139c0-.127.08-.203.24-.228.135-.026.293-.048.475-.07.182-.021.356-.04.525-.057a9.179 9.179 0 0 1 .784-.051c.169 0 .292.097.368.291l5.645 14.529a.492.492 0 0 1 .037.14c0 .144-.084.228-.252.253a10.806 10.806 0 0 1-1.07.12 12.889 12.889 0 0 1-.829.031c-.144 0-.24-.063-.291-.19l-2.063-5.366-5.529.089zm.405-1.076h4.746l-2.404-6.277-2.342 6.277zM147.588 102.438h-5.193l-2.09 5.747h-.9l5.588-15.347 5.578 15.347h-.891l-2.092-5.747zm-.31-.844l-2.287-6.291-2.288 6.291h4.575zM106.698 127.42H99.97l-1.377 3.741h1.962c.244 0 .418.047.524.141a.47.47 0 0 1 .159.371.477.477 0 0 1-.159.366c-.105.097-.28.146-.524.146h-3.827c-.244 0-.418-.049-.524-.146a.48.48 0 0 1-.158-.366c0-.154.053-.278.158-.371.105-.094.28-.141.524-.141h.792l4.522-12.212H99.02c-.244 0-.418-.047-.524-.14a.474.474 0 0 1-.158-.372c0-.154.053-.278.158-.371.105-.093.28-.141.524-.141h5.156l4.996 13.236h.792c.244 0 .418.047.524.14s.158.218.158.372c0 .146-.053.268-.158.365s-.28.146-.524.146h-3.814c-.252 0-.431-.049-.536-.146a.477.477 0 0 1-.159-.365c0-.154.053-.279.159-.372.105-.093.284-.14.536-.14h1.95l-1.402-3.741zm-.389-1.024l-2.828-7.446h-.377l-2.742 7.446h5.947zM127.119 127.077h-5.906l-1.035 2.407c-.255.593-.382 1.035-.382 1.328 0 .232.11.437.331.613.222.176.7.29 1.435.343v.416h-4.804v-.416c.638-.112 1.051-.259 1.238-.438.382-.36.806-1.091 1.271-2.193l5.366-12.555h.394l5.311 12.689c.428 1.021.815 1.683 1.164 1.986s.835.475 1.457.512v.416h-6.019v-.416c.607-.03 1.018-.131 1.231-.304s.321-.383.321-.631c0-.33-.15-.851-.451-1.563l-.922-2.194zm-.314-.832l-2.588-6.165-2.655 6.165h5.243zM148.438 132.185c-.07 0-.106-.034-.106-.105v-.56c0-.076.036-.115.106-.115l1.688-.169c.042 0 .07-.014.084-.042.016-.028.014-.063 0-.105l-1.604-4.24c-.027-.042-.056-.063-.084-.063h-4.704a.122.122 0 0 0-.084.063l-1.709 4.282c-.035.091 0 .141.105.147l1.624.127c.07.008.105.047.105.115v.56c0 .07-.035.105-.105.105h-4.672c-.07 0-.105-.034-.105-.105v-.56c0-.076.035-.115.105-.115l1.771-.169a.12.12 0 0 0 .084-.063l5.496-13.827c.027-.042.056-.063.084-.063h.537a.125.125 0 0 1 .085.063l5.052 13.807c.015.042.047.063.096.063l1.719.189c.063 0 .094.039.094.115v.56c0 .07-.038.105-.115.105h-5.547zm-2.1-11.622c-.027-.042-.057-.063-.084-.063-.043 0-.07.021-.084.063l-2.036 5.168c-.042.098-.01.147.095.147h3.903c.112 0 .15-.05.115-.147l-1.909-5.168zM104.942 140.988c1.2 0 2.167.258 2.902.773.734.515 1.102 1.217 1.102 2.104v12.318h-1.604v-8.803h-7.2v8.803h-1.603v-12.318c0-.888.367-1.59 1.102-2.104.734-.516 1.701-.773 2.901-.773h2.4zm2.4 5.597v-2.278c0-.169-.003-.314-.01-.44a3.578 3.578 0 0 0-.061-.469 2 2 0 0 0-.146-.483 2.245 2.245 0 0 0-.271-.426 1.573 1.573 0 0 0-.422-.371c-.163-.096-.372-.176-.628-.238s-.544-.094-.863-.094h-2.4c-.318 0-.605.031-.862.094a2.386 2.386 0 0 0-.628.238 1.543 1.543 0 0 0-.422.371c-.119.149-.21.291-.272.426s-.111.296-.146.483-.055.344-.061.469c-.006.126-.01.271-.01.44v2.278h7.202zM133.086 155.504c0 .275-.087.511-.262.707a.878.878 0 0 1-.687.293.495.495 0 0 1-.299-.082 2.64 2.64 0 0 1-.319-.305 4.149 4.149 0 0 1-.372-.479 11.736 11.736 0 0 1-.695-1.232c-.21-.43-.381-.81-.511-1.14a2.56 2.56 0 0 0-.107-.263 13.103 13.103 0 0 1-.232-.526 5.65 5.65 0 0 1-.134-.366c-.2-.591-.344-.979-.433-1.165-.098.097-.189.169-.279.221s-.184.091-.283.114-.203.037-.31.041-.222.006-.346.006c-.069 0-.155.014-.258.041a12.726 12.726 0 0 0-.69.205 4.507 4.507 0 0 1-.33.104c-.345.097-.691.183-1.042.258-.351.076-.711.149-1.083.222s-.76.142-1.166.206l-1.29.212c-.206.034-.402.169-.588.401-.179.241-.55.757-1.113 1.548-.55.784-1.018 1.357-1.402 1.722-.378.365-.746.547-1.104.547-.454 0-.832-.09-1.135-.268-.343-.221-.516-.454-.516-.701 0-.131.074-.226.222-.284s.349-.112.603-.159c.083-.008.271-.176.567-.506.282-.316.495-.578.64-.784.289-.378.583-.782.882-1.212s.634-.912 1.005-1.449c.179-.274.337-.512.474-.711.138-.199.251-.367.341-.506l.325-.464c.12-.171.259-.364.417-.577l.248-.35c.096-.139.209-.293.34-.465.131-.179.25-.336.355-.475a8.2 8.2 0 0 0 .273-.371l.314-.412.449-.588c.055-.068.163-.229.325-.484.162-.254.379-.605.655-1.053.385-.639.636-1.106.752-1.402.806-1.951 1.409-2.929 1.815-2.929.179 0 .323.016.433.047.11.03.196.082.258.154.063.072.104.169.124.289s.031.267.031.438v.309c0 .091-.004.162-.011.217-.007.109-.014.252-.021.423-.007.173-.018.375-.031.609.345.722.671 1.498.98 2.33.158.42.325.878.5 1.376.176.499.362 1.047.562 1.646a81.826 81.826 0 0 0 .897 2.537c.097.261.211.561.346.897.135.336.294.718.479 1.145.068.158.326.539.773 1.145.444.604.664 1.038.664 1.298zm-4.568-6.095l-.401-1.222a70.062 70.062 0 0 0-.449-1.311 36.208 36.208 0 0 0-.475-1.263 14.024 14.024 0 0 0-.479-1.083c-.385.522-.75 1.024-1.093 1.506-.344.481-.675.964-.995 1.449a47.812 47.812 0 0 0-1.903 3.119.62.62 0 0 0 .206.041c.104 0 .235-.008.397-.025.161-.018.326-.038.495-.063a13.465 13.465 0 0 0 .861-.148c.166-.041.308-.076.429-.104.12-.027.235-.055.346-.082l.355-.089c.126-.03.279-.067.458-.108.398-.104.795-.207 1.187-.314a32.06 32.06 0 0 0 1.061-.303zM151.65 156.37c0 .399-.254.6-.76.6-.197 0-.332-.015-.405-.042-1.878-1.924-3.712-2.886-5.501-2.886-.394 0-1.221.157-2.48.472-.395.096-.743.436-1.047 1.021-.072.134-.271.607-.59 1.417-.079.067-.259.169-.54.304-.181-.174-.271-.413-.271-.717 0-1.086.264-2.211.793-3.375.135-.214.331-.543.59-.987l1.527-3.351c1.243-2.688 2.422-4.979 3.535-6.868l.009.262c.265-.124.464-.458.599-1.004.125-.489.311-.734.557-.734a.154.154 0 0 1 .094-.025c.162 0 .292.133.388.397a185.666 185.666 0 0 1 1.831 8.538l.506 2.633c.124.241.284.602.481 1.08.091.298.222.844.396 1.637.193.866.288 1.409.288 1.628zm-1.636-1.468v-.498c0-.225-.161-1.187-.481-2.886l-.827-4.379a25.026 25.026 0 0 0-1.207-4.261c-.72.76-1.689 2.573-2.91 5.442l-.566 1.308c-.134.191-.252.37-.354.536-.102.165-.31.629-.624 1.388-.332.793-.498 1.243-.498 1.351 0 .174.045.262.135.262l2.37-.101a6.12 6.12 0 0 1 2.634.438c.539.225 1.314.691 2.328 1.4z"/></svg>