<svg xmlns="http://www.w3.org/2000/svg" width="120" height="120" viewBox="0 0 120 120"><g fill="#79C753"><path d="M92.777 52.289h.44c4.562 0 9.121.004 13.682-.01.369-.001.497.083.571.464.372 1.875.573 3.769.677 5.674.005.081 0 .164 0 .271H36.133c.055-.76.092-1.51.168-2.258a35.656 35.656 0 0 1 1.677-7.858c1.44-4.287 3.603-8.175 6.512-11.636 4.521-5.381 10.13-9.152 16.831-11.28 3.909-1.243 7.924-1.774 12.025-1.634 4.881.17 9.527 1.306 13.961 3.341.23.106.318.221.316.479-.016 1.27-.008 2.539-.008 3.848h-2.554v2.586h5.099v2.576h-2.52v2.557h5.113v2.583h2.563v2.575H87.64v2.57h10.253v2.571h-5.119c.003.875.003 1.707.003 2.581zM100.478 70.288v2.564H90.199v2.566h-5.134v2.572h7.683v2.579h5.151v2.563h-2.55v2.565h-7.715v2.575h-2.58v2.578h-7.717v2.57h2.533c0 .555.01 1.077-.009 1.6-.002.063-.131.16-.216.178-3.378.697-6.784.963-10.23.695a36.077 36.077 0 0 1-9.094-1.883 35.623 35.623 0 0 1-12.189-7.183 35.808 35.808 0 0 1-8.746-11.841c-1.373-2.989-2.334-6.11-2.809-9.369-.188-1.305-.281-2.622-.416-3.934-.013-.116-.003-.235-.003-.377h71.959c.113.957-.438 5.479-.782 6.396H95.37v2.579c1.697.007 3.385.007 5.108.007z"/></g><path d="M72.068 96.479a36.863 36.863 0 0 1-11.905-2.01 36.295 36.295 0 0 1-12.354-7.279 36.347 36.347 0 0 1-8.859-11.996c-1.424-3.096-2.382-6.292-2.848-9.501-.135-.927-.221-1.867-.307-2.778a91.548 91.548 0 0 0-.111-1.175c-.012-.099-.01-.199-.008-.31l.003-.597h72.866l.05.423c.124 1.047-.438 5.625-.812 6.621l-.117.311H95.851v1.619h5.107v3.526H90.679v2.565h-5.135v1.613h7.684v2.578h5.152v3.523h-2.551v2.564h-7.714v2.576h-2.579v2.578h-7.719v1.61h2.534l.001.893c.002.41.003.808-.012 1.202-.01.354-.365.588-.604.633-2.59.54-5.172.811-7.668.811zM36.654 61.794c.034.346.065.688.099 1.031.082.898.17 1.828.299 2.73.453 3.117 1.386 6.225 2.771 9.235a35.456 35.456 0 0 0 8.628 11.685 35.359 35.359 0 0 0 12.028 7.088 35.938 35.938 0 0 0 8.974 1.854c3.219.25 6.549.03 9.938-.653.005-.283.004-.568.003-.859h-2.536v-3.529h7.718v-2.578h2.58v-2.576h7.714v-2.565h2.551v-1.604H92.27v-2.578h-7.685V74.94h5.135v-2.565h10.279v-1.606H94.89V67.23h12.087c.278-1.144.651-4.162.677-5.435l-71-.001zM108.628 59.167H35.62l.082-1.184a36.422 36.422 0 0 1 1.821-9.567 36.085 36.085 0 0 1 6.601-11.791c4.572-5.441 10.311-9.287 17.053-11.429a36.041 36.041 0 0 1 12.188-1.655c4.862.168 9.62 1.307 14.146 3.383.408.188.599.479.596.918-.012.941-.01 1.879-.008 2.834l.001 1.49h-2.554v1.626h5.098v3.536h-2.52v1.596h5.113v2.584H95.8v3.534h-7.676v1.61h10.254v3.531h-5.121v1.621h5.142c2.833 0 5.666 0 8.5-.01.608 0 .929.264 1.044.852.346 1.74.568 3.617.686 5.74.004.063.002.127.002.201l-.003.58zm-71.98-.959h71.006c-.114-1.981-.33-3.739-.653-5.371l-.018-.075-.077-.002c-2.84.01-5.673.01-8.508.01h-6.103v-3.541h5.119v-1.611H87.161v-3.53h7.678v-1.614h-2.563V39.89h-5.114v-3.516h2.521v-1.615h-5.099V31.21h2.553v-.529c-.002-.959-.002-1.901.009-2.845v-.018l-.036-.019c-4.408-2.023-9.044-3.133-13.777-3.295-4.062-.142-8.058.4-11.865 1.609-6.564 2.085-12.152 5.83-16.607 11.132-2.839 3.378-5 7.24-6.424 11.479a35.325 35.325 0 0 0-1.775 9.322l-.014.162z"/><path d="M59.268 52.527h-.004a10.488 10.488 0 0 1-7.472-3.12c-1.992-2-3.082-4.64-3.07-7.433.025-5.795 4.752-10.508 10.535-10.508a10.488 10.488 0 0 1 7.483 3.117 10.42 10.42 0 0 1 3.065 7.434c-.024 5.795-4.753 10.51-10.537 10.51zm0-20.58c-5.531 0-10.042 4.499-10.065 10.029-.012 2.664 1.029 5.183 2.93 7.092a10.008 10.008 0 0 0 7.133 2.979l.004.24v-.24c5.521 0 10.033-4.498 10.059-10.029a9.936 9.936 0 0 0-2.926-7.094 10.02 10.02 0 0 0-7.135-2.977z"/><path d="M55.259 51.724c-2.9-1.983-4.623-5.242-4.61-8.713.024-5.797 4.75-10.508 10.536-10.508h.011c1.423.001 2.804.283 4.104.836l-.188.441a10 10 0 0 0-3.918-.799h-.01c-5.522 0-10.032 4.498-10.056 10.031-.014 3.313 1.631 6.42 4.399 8.313l-.268.399z"/><path d="M61.191 46.628a3.604 3.604 0 0 0 3.601-3.588c.008-1.979-1.61-3.602-3.599-3.604a3.61 3.61 0 0 0-3.603 3.588c-.005 1.977 1.618 3.603 3.601 3.604z"/><g><path d="M26.094 56.134l-.461-.842-4.901 2.679-4.894-2.675-.46.844 4.352 2.379-4.343 2.375.461.843 4.884-2.671 4.892 2.673.461-.843-4.351-2.378zM30.317 51.148l-2.344-1.281 2.338-1.278-.46-.842-2.879 1.573-2.894-1.58-.46.842 2.353 1.285-2.361 1.291.461.842 2.901-1.586 2.886 1.577zM19.521 49.631l-.46-.842-3.622 1.977-3.608-1.973-.461.843 3.068 1.677-3.059 1.669.46.842 3.599-1.965 3.613 1.974.46-.842-3.071-1.678z"/></g></svg>