<svg xmlns="http://www.w3.org/2000/svg" width="120" height="120" viewBox="65 65 120 120"><g fill="#79C753"><path d="M144.693 108.659c.384-14.479-6.77-25.35-19.717-25.35-12.342 0-20.056 10.521-19.714 25.35h39.431zM121.156 154.253l-2.437 12.601h12.226l-2.67-12.601z"/><path d="M143.638 128.131h2.018v28.682l-3.432 9.277h11.266l-2.189-9.277v-28.682h1.622v-19.579H97.075v19.579h1.622v28.682l-2.187 9.277h11.263l-3.43-9.277v-28.682h2.017l.015 23.831h37.418z"/></g><path d="M154.096 166.57h-12.563l3.644-9.843V128.61h-1.06v-.96h2.02v29.248l-3.224 8.711h9.97l-2.062-8.796V127.65h1.622v-18.619h-7.366v-.96h8.326v20.539h-1.622v28.147zM108.462 166.57H95.904l2.314-9.813V128.61h-1.623v-20.539h8.325v.96h-7.365v18.619h1.623l-.014 29.272-2.047 8.687h9.967l-3.222-8.711V127.65h2.018v.96h-1.057v28.117zM131.242 167.093h-12.814l2.53-13.08h7.512l2.772 13.08zm-12.232-.48h11.64l-2.569-12.12h-6.727l-2.344 12.12z"/><path d="M145.16 109.14h-40.368l-.01-.469c-.195-8.459 2.207-15.685 6.762-20.348 3.512-3.594 8.157-5.494 13.432-5.494 5.393 0 10.085 1.89 13.569 5.467 4.5 4.622 6.854 11.858 6.628 20.376l-.013.468zm-39.427-.96h38.489c.123-8.053-2.129-14.863-6.365-19.214-3.299-3.387-7.753-5.177-12.881-5.177-5.01 0-9.417 1.8-12.745 5.205-4.291 4.39-6.59 11.189-6.498 19.186z"/><path d="M133.177 100.729h-15.955l1.995-10.536h11.879l2.081 10.536zm-15.375-.479h14.79l-1.891-9.576h-11.087l-1.812 9.576zM144.273 152.442h-38.379V108.18h38.379v44.262zm-37.419-.96h36.459V109.14h-36.459v42.342z"/><path d="M120.124 149.313h-6.608v-5.571h6.608v5.571zm-6.128-.48h5.648v-4.611h-5.648v4.611zM116.872 120.131l-4.392-.817v-2.843l4.392-.816 1.157.776h2.808l.271-.763h12.569l1.383.763h2.673v2.924h-2.765l-1.288.763h-12.573l-.271-.763h-2.808l-1.156.776zm4.575-.493h12.103l1.288-.764h2.416v-1.964h-2.316l-1.384-.763h-12.106l-.271.763h-3.292l-1.116-.749-3.807.709v2.045l3.807.709 1.116-.749h3.292l.27.763zM133.341 125.828l-1.156-.776h-2.808l-.272.763h-12.572l-1.289-.763h-2.764v-2.924h2.672l1.383-.763h12.568l.272.763h2.807l1.157-.777 4.393.818v2.843l-4.391.816zm-16.677-.494h12.103l.271-.763h3.292l1.116.749 3.807-.708v-2.045l-3.807-.709-1.116.749h-3.292l-.271-.764H116.66l-1.384.764h-2.316v1.964h2.416l1.288.763zM137.733 114.125H112.48v-3.688h25.253v3.688zm-24.773-.48h24.293v-2.728H112.96v2.728zM124.369 88.951h-13.543l4.81-3.76h8.734v3.76zm-12.15-.48h11.67v-2.8H115.8l-3.581 2.8zM139.32 88.951h-13.543v-3.76h8.733l4.81 3.76zm-13.063-.48h11.671l-3.582-2.8h-8.089v2.8zM125.149 90.982a4.143 4.143 0 1 0-.001 8.287 4.143 4.143 0 0 0 .001-8.287zM134.73 104.169a1.49 1.49 0 0 1-2.978 0 1.489 1.489 0 1 1 2.978 0z"/></svg>