<svg xmlns="http://www.w3.org/2000/svg" width="120" height="120" viewBox="65 65 120 120"><path fill="#79C753" d="M65.969 95.482l50.47-11.792 67.557 11.55.571 22.922-37.402 48.298-81.676-48.298z"/><path d="M124.276 102.606l-11.625-7.231 24.322 1.59-12.697 5.641m-18.437-9.873l-.999.3 23.51 15.585a43.46 43.46 0 0 1 2.039 1.415c.616.457 1.152.889 1.607 1.294.461.412.835.796 1.122 1.15.29.359.489.688.594.984a.835.835 0 0 1 .011.515c-.05.198-.154.421-.314.67a6.36 6.36 0 0 1-.654.833c-.277.31-.614.646-1.013 1.011l1.959.629 13.646-8.656-1.817-.461c-.513.268-1.009.508-1.484.722-.479.215-.938.401-1.375.559a12.99 12.99 0 0 1-1.246.387 8.02 8.02 0 0 1-1.104.206c-.341.039-.671.065-.99.076-.32.011-.629.009-.927-.006a8.661 8.661 0 0 1-.853-.087 6.844 6.844 0 0 1-.778-.164 10.321 10.321 0 0 1-.98-.327c-.34-.131-.695-.285-1.065-.461a20.565 20.565 0 0 1-1.14-.59 27.515 27.515 0 0 1-1.205-.709l-6.162-3.826 14.153-6.562 9.39.612c.776.05 1.495.103 2.155.154.663.054 1.267.108 1.81.163a43.14 43.14 0 0 1 1.461.169c.43.058.798.117 1.107.177.231.045.441.095.634.15.19.056.362.116.515.183.151.068.284.139.395.217.113.078.205.162.277.252.07.09.104.19.098.3a.765.765 0 0 1-.136.364 2.402 2.402 0 0 1-.379.432 6.534 6.534 0 0 1-.63.502l1.666.342 9.59-6.083-1.518-.255c-.254.13-.527.248-.82.353a8.945 8.945 0 0 1-.939.282c-.334.082-.688.151-1.059.209a15.61 15.61 0 0 1-1.173.132c-.409.03-.904.049-1.484.056-.579.006-1.243 0-1.99-.018-.746-.017-1.575-.046-2.484-.088-.908-.042-1.896-.095-2.962-.159l-48.059-2.933M147.264 167.088l-.366-.215-82.105-48.542.488-.826 81.742 48.327 37.455-48.343.758.587-.295.38z"/><path d="M147.255 153.773L64.803 110.94l.443-.851.426.222 81.359 42.265 37.489-42.517.719.634z"/><path d="M147.244 139.604l-.295-.13-82.132-36.397.389-.877 81.836 36.265 37.532-36.311.667.691z"/><path d="M147.278 126.701l-.386-.143-81.693-30.402.502-1.349 81.308 30.257 37.099-30.141.91 1.118z"/><path d="M183.906 95.714l-67.473-11.535-50.489 11.372-.211-.937 50.675-11.413.093.016 67.567 11.55z"/></svg>