<svg xmlns="http://www.w3.org/2000/svg" width="120" height="120" viewBox="65 65 120 120"><path fill="#79C753" d="M167.482 167.578c-2.196-1.913-4.621-5.998-7.314-12.425L126.739 75.3h-2.48l-33.803 79.003c-2.931 6.944-5.735 11.509-8.145 13.776-1.182 1.135-4.092 2.014-7.932 2.723v2.418h31.68v-2.156c-4.32-.297-6.774-.945-8.028-1.945-1.254-.998-1.83-2.156-1.83-3.476 0-1.657.749-3.951 2.194-7.31l5.894-13.914h33.484l5.23 12.702c1.699 4.039 2.551 6.888 2.551 8.757 0 1.403-.833 2.54-2.046 3.519-1.211.979-3.37 1.498-7.211 1.667v2.636h40.32v-2.897c-4.317-.236-6.938-1.311-9.135-3.225zm-59.603-31.81l13.441-30.97 13.099 30.972-26.54-.002z"/><path d="M177.1 174.18h-41.28v-3.574l.458-.021c3.656-.161 5.794-.643 6.931-1.562 1.256-1.013 1.867-2.042 1.867-3.145 0-1.771-.799-4.494-2.513-8.57l-5.11-12.408h-32.845l-5.77 13.62c-1.512 3.513-2.156 5.642-2.156 7.123 0 1.204.539 2.218 1.648 3.101 1.208.963 3.746 1.566 7.761 1.842l.448.03v3.084h-32.64v-3.297l.393-.072c4.093-.755 6.679-1.629 7.687-2.597 2.485-2.339 5.262-7.047 8.035-13.617l33.928-79.297h3.117l.123.294 33.43 79.854c2.622 6.257 5.041 10.379 7.188 12.248 2.251 1.962 4.896 2.891 8.848 3.107l.454.024-.002 3.833zm-40.321-.959h39.36v-1.967c-3.933-.275-6.636-1.277-8.973-3.313-2.29-1.995-4.724-6.117-7.442-12.601L126.42 75.78h-1.845l-33.678 78.712c-2.823 6.69-5.679 11.511-8.257 13.938-1.123 1.078-3.671 1.987-7.781 2.771v1.539h30.72v-1.23c-4.013-.307-6.513-.95-7.848-2.016-1.333-1.061-2.01-2.357-2.01-3.851 0-1.642.647-3.813 2.233-7.5l6.017-14.203h34.123l5.354 12.999c1.765 4.193 2.587 7.036 2.587 8.939 0 1.412-.728 2.685-2.224 3.892-1.272 1.028-3.389 1.558-7.033 1.751v1.7h.001zm-1.635-36.972l-27.996-.001 14.178-32.669 13.818 32.67zm-26.533-.961l25.084.001-12.381-29.271-12.703 29.27z"/><path d="M121.57 104.808l-.48-.02.318-7.625.48.02zM104.082 144.564l-1.575-3.217.43-.211 1.576 3.217zM137.982 144.599l-.4-.266 2.141-3.22.4.266zM106.203 171.296l-1.114-.261.11-.467 1.114.262zM136.786 171.308l-.06-.476 2.031-.258.06.476z"/><g><path d="M94.336 166.648h2.127v.48h-2.127zM97.22 160.96l-2.21-1.775.3-.374 2.21 1.775zM144.624 160.975l-.26-.405 2.766-1.772.26.405zM145.33 167.504l-.063-.477 2.843-.373.063.477z"/></g><g><path d="M160.05 170.897l-36.978-86.418.442-.188 36.977 86.417z"/><path d="M123.523 84.476l-.45-.167 3.436-9.262.45.167z"/><path d="M123.529 84.422l-.477-.05.965-9.257.477.05z"/><path d="M121.864 97.198l-.476-.063 1.678-12.777.476.063zM145.82 137.596l-7.918-1.357.082-.473 7.917 1.357z"/><path d="M140.051 141.443l-.263-.402 5.928-3.894.264.4z"/><path d="M145.905 137.605l-.1-.47 6.356-1.36.1.469zM101.139 137.594l-.16-.453 3.86-1.355.16.453z"/><path d="M102.497 141.347l-1.662-3.888.442-.189 1.662 3.888zM138.787 170.563h37.912v.48h-37.912z"/><path d="M160.207 171.026l-12.13-3.914.146-.456 12.13 3.914z"/><path d="M160.098 170.982l-13.024-11.81.322-.355 13.025 11.81z"/><path d="M160.51 170.821l-.475-.066 1.653-11.812.474.067z"/><path d="M160.397 171.013l-.247-.412 6.532-3.926.248.411z"/><path d="M160.034 170.803h.48v2.622h-.48zM87.21 170.884l-.443-.186 36.323-86.384.442.186z"/><path d="M74.652 170.563h30.26v.48h-30.26zM100.944 137.583l-2.814-1.356.209-.432 2.814 1.356z"/><path d="M87.129 171.016l-.227-.425 7.322-3.914.227.425z"/><path d="M87.226 170.937l-.395-.271 8.133-11.818.394.271z"/><path d="M87.26 170.824l-.478-.052 1.281-11.812.477.051z"/><path d="M86.836 170.959l-3.494-3.915.36-.32 3.493 3.915z"/><path d="M86.773 170.803h.48v2.622h-.48z"/></g><g><path d="M176.939 173.664h-38.393v-3.09l.229-.011c3.756-.186 6.32-.812 7.62-1.861 1.281-1.032 1.931-2.305 1.931-3.781 0-2.034-.948-5.317-2.816-9.757l-5.749-13.672h-36.887l-6.458 15.02c-1.585 3.685-2.39 6.467-2.39 8.268 0 1.382.673 2.619 2 3.674 1.35 1.076 4.345 1.786 8.903 2.11l.223.016v3.085h-30.74v-3.063l.198-.034c3.95-.698 6.531-1.607 7.671-2.701 2.374-2.234 5.049-6.856 7.954-13.739L124.1 74.894h2.799l.062.147 33.448 79.937c2.666 6.36 5.112 10.54 7.271 12.421 2.145 1.868 5.184 2.934 9.034 3.165l.226.014v3.086h-.001zm-37.912-.479h37.432v-2.156c-3.851-.267-6.91-1.366-9.094-3.269-2.215-1.93-4.705-6.168-7.399-12.597l-33.387-79.79h-2.162l-33.74 78.941c-2.931 6.944-5.644 11.62-8.064 13.898-1.205 1.158-3.732 2.071-7.72 2.791v2.18h29.779v-2.158c-4.594-.343-7.521-1.062-8.945-2.196-1.447-1.151-2.181-2.515-2.181-4.051 0-1.867.817-4.711 2.429-8.456l6.583-15.311h37.521l5.872 13.966c1.894 4.499 2.854 7.845 2.854 9.943 0 1.629-.71 3.026-2.109 4.155-1.372 1.107-3.883 1.748-7.669 1.954v2.156zm-.73-36.937h-33.749l.145-.335L121.64 96.56l16.657 39.688zm-33.02-.48h32.297l-15.941-37.98-16.356 37.98z"/></g></svg>