<svg xmlns="http://www.w3.org/2000/svg" width="180" height="180" viewBox="85 85 180 180"><g fill="#415139"><path d="M252.029 227.753c-2.621 4.156-5.177 8.206-7.748 12.28-3.674-2.275-7.344-4.52-10.973-6.826-.537-.342-.73-.18-1.095.168-3.411 3.242-7.243 5.867-11.546 7.794-.089.039-.172.087-.26.126-.746.336-1.822.486-2.141 1.061-.279.5.284 1.477.492 2.239.809 2.958 1.625 5.913 2.435 8.87.241.885.468 1.773.703 2.668l-13.96 3.855c-1.062-3.74-2.095-7.354-3.113-10.972a76.154 76.154 0 0 1-.975-3.765c-.052-.226.165-.512.253-.756a39.916 39.916 0 0 1-11.419-1.848c-1.162-.369-2.302-.814-3.439-1.256-.472-.182-.719-.206-1.055.334-2.299 3.704-4.664 7.366-7.039 11.094-4.09-2.566-8.14-5.109-12.259-7.695l7.509-12.014c-2.376-3.188-4.678-6.276-7.06-9.475-4.567 1.26-9.394 2.594-14.309 3.949l-3.891-13.985 14.061-3.964c-.726-5.984-.083-11.74 1.72-17.375.163-.51.07-.714-.367-.983-3.078-1.899-6.133-3.833-9.2-5.748-.513-.321-.626-.542-.227-1.161 2.446-3.797 4.813-7.644 7.273-11.583l9.947 6.134c4.264-4.727 9.174-8.487 15.213-10.923l-3.902-14.209c4.669-1.308 9.287-2.601 13.999-3.919.505 1.782 1.001 3.537 1.5 5.289.53 1.859 1.075 3.715 1.593 5.578.264.945.477 1.904.72 2.854.194.758.259 1.351 1.458 1.363 4.099.039 8.146.639 12.053 1.942.63.209.912.091 1.225-.408 2.109-3.368 4.233-6.727 6.465-10.267l12.334 7.702c-1.296 2.068-2.572 4.101-3.841 6.137-.759 1.214-1.475 2.455-2.27 3.644-.401.599-.197 1.004.241 1.386 3.973 3.479 7.059 7.621 9.372 12.363.112.23.784.369 1.124.277 3.576-.959 7.138-1.977 10.705-2.972.939-.262 1.885-.503 2.936-.782l3.822 14.021c-2.252.608-4.467 1.192-6.673 1.809-2.457.686-4.902 1.415-7.361 2.095-.657.182-.622.486-.644 1.13-.096 2.793-.332 5.583-.612 8.366-.31 3.055-1.39 5.916-2.45 8.768-.204.547-.125.755.346 1.049 3.422 2.141 6.823 4.314 10.33 6.541zm-28.507-22.109c-.135-9.568-7.874-17.898-18.138-18.167-10.069-.265-19.189 7.751-19.023 18.951.143 9.69 7.596 17.712 17.682 18.183 11 .512 19.646-8.205 19.479-18.967z"/><path d="M135.612 109.691l-5.834-8.944 9.502-6.29 5.95 8.97c2.896-1.065 5.749-1.907 8.749-2.103.606-.039.869-.192.97-.854.52-3.406 1.105-6.801 1.671-10.199.052-.313.118-.622.199-1.052 1.575.219 3.148.423 4.717.661 1.86.281 3.713.613 5.576.873.705.099.957.267.815 1.084-.585 3.36-1.07 6.738-1.586 10.111-.028.182-.004.372-.004.564 4.417 1.405 8.375 3.595 11.759 6.781.388.365.722.391 1.242.038 2.562-1.737 5.174-3.396 7.828-5.122 1.655 2.518 3.268 4.968 4.877 7.421.188.285.344.59.528.877.834 1.292.833 1.285-.475 2.142-2.22 1.455-4.433 2.918-6.653 4.38.551 1.607 1.127 3.165 1.618 4.75.78 2.526 1.136 5.13 1.19 7.768.014.644.219.893.836.99 3.207.503 6.408 1.037 9.611 1.561.092.015.179.056.371.117l-1.844 11.244L187.2 143.8c-.66-.109-1.123-.078-1.457.73-1.329 3.214-3.198 6.111-5.513 8.713-.317.357-.667.684-.987 1.036-.987 1.081-.984 1.083-.186 2.307l5.385 8.247-9.53 6.263c-2.069-3.151-4.113-6.274-6.185-9.38-.105-.158-.494-.28-.67-.213-3.544 1.357-7.241 1.894-11.003 2.055-.821.035-1.648-.079-2.545-.128-.322 1.879-.648 3.74-.959 5.604-.27 1.62-.497 3.246-.808 4.857-.048.251-.479.65-.677.619-3.464-.526-6.919-1.107-10.375-1.68-.085-.014-.165-.063-.253-.099l1.965-12.284c-1.403-.87-2.926-1.659-4.268-2.684-1.645-1.256-3.151-2.696-4.691-4.086-.479-.432-.778-.595-1.438-.143-2.703 1.851-5.479 3.594-8.333 5.445l-6.237-9.476c1.351-.901 2.657-1.776 3.966-2.646 1.628-1.083 3.271-2.146 4.875-3.263.228-.159.455-.638.376-.865-1.023-2.988-1.494-6.073-1.732-9.205-.007-.094-.036-.187-.075-.383l-10.92-1.77 1.792-11.223c2.745.416 5.383.813 8.02 1.217.715.109 1.429.224 2.136.372.604.126.939-.084 1.15-.665 1.21-3.339 3.108-6.277 5.355-8.998.684-.824 1.466-1.568 2.234-2.383zm35.841 23.433c-.131-8.328-7.295-14.825-15.523-14.309-7.45.466-14.271 6.992-13.574 15.785.583 7.347 6.634 13.48 14.709 13.327 8.449-.161 14.426-6.854 14.388-14.803zM123.61 172.437l1.422 9.268c2.915.839 5.654 1.627 8.464 2.438l4.881-5.938c2.341 1.898 4.639 3.762 6.965 5.646-1.625 2.037-3.181 3.985-4.736 5.936 2.154 2.525 3.962 5.168 4.935 8.309.22.709.66.654 1.331.537 2.349-.406 4.722-.672 7.085-.998.249-.034.491-.112.89-.207.09.311.217.616.265.934a419.58 419.58 0 0 1 1.077 7.482c.024.189-.261.584-.446.613-2.721.438-5.451.812-8.171 1.256-.247.041-.594.441-.621.703-.363 3.547-1.371 6.879-3.07 10.016-.117.215.1.785.335.986 1.774 1.526 3.592 3 5.502 4.58-1.86 2.281-3.718 4.56-5.651 6.934l-6.48-5.24c-2.863 2.153-6.049 3.75-9.679 4.604.236 1.667.464 3.295.699 4.922.15 1.035.307 2.068.47 3.102.102.643-.155.871-.812.955-2.575.328-5.142.723-7.869 1.117-.204-1.246-.433-2.537-.624-3.832-.271-1.838-.492-3.684-.798-5.515-.04-.235-.44-.548-.708-.587-2.762-.404-5.325-1.37-7.743-2.724-.511-.286-.718-.224-1.065.215-1.582 1.999-3.21 3.96-4.924 6.062-2.31-1.877-4.594-3.733-6.927-5.631l4.017-4.984c.097-.121.199-.239.292-.363 1.181-1.605 1.145-1.584.153-3.26a57.023 57.023 0 0 1-2.172-4.069c-.214-.438-.382-.505-.844-.429-2.372.393-4.753.729-7.13 1.085-.489.073-.979.142-1.483.215l-1.296-8.781c2.783-.442 5.417-.89 8.063-1.266.643-.091.802-.271.82-.937a23.056 23.056 0 0 1 2.105-9.067c.401-.875.127-1.276-.543-1.78-1.492-1.123-2.926-2.324-4.377-3.502-.168-.137-.291-.33-.478-.549l5.568-6.89 5.554 4.446c.842-.642 1.644-1.437 2.598-1.944 2.203-1.173 4.468-2.233 6.736-3.276.565-.26.797-.391.67-1.133-.429-2.51-.717-5.047-1.023-7.577-.024-.206.193-.618.344-.643 2.777-.436 5.559-.827 8.429-1.239zm-1.268 46.204c5.801.12 11.683-4.298 11.68-11.505-.002-5.859-4.271-10.891-10.664-11.348-6.522-.467-12.104 4.422-12.223 11.441-.093 5.585 4.389 11.246 11.207 11.412z"/></g></svg>