<svg xmlns="http://www.w3.org/2000/svg" width="120" height="120" viewBox="60 60 120 120"><path fill="#415139" d="M166.547 142.157l-7.523 11.923c-3.568-2.209-7.131-4.388-10.654-6.627-.521-.332-.709-.174-1.063.162-3.311 3.148-7.033 5.698-11.209 7.568-.086.037-.168.084-.254.121-.723.326-1.768.473-2.078 1.03-.27.486.277 1.435.479 2.175.785 2.871 1.578 5.74 2.363 8.612.236.858.455 1.721.684 2.591l-13.553 3.742c-1.031-3.633-2.033-7.141-3.021-10.652a76.86 76.86 0 0 1-.948-3.655c-.05-.219.161-.496.245-.733a38.889 38.889 0 0 1-11.086-1.793c-1.129-.359-2.234-.791-3.34-1.22-.457-.177-.697-.2-1.023.323-2.232 3.597-4.527 7.152-6.834 10.771-3.971-2.49-7.902-4.959-11.902-7.47l7.29-11.664-6.854-9.197c-4.434 1.222-9.12 2.516-13.892 3.834l-3.777-13.58 13.651-3.847c-.705-5.81-.082-11.399 1.67-16.87.157-.493.068-.692-.356-.954-2.988-1.844-5.954-3.721-8.933-5.58-.498-.312-.607-.526-.22-1.128 2.375-3.686 4.673-7.421 7.062-11.245l9.656 5.956c4.139-4.589 8.908-8.24 14.77-10.604L102.11 70.35l13.592-3.805c.49 1.73.971 3.434 1.455 5.135.516 1.806 1.045 3.606 1.547 5.415.256.918.463 1.849.699 2.771.188.735.25 1.312 1.416 1.323 3.979.037 7.908.62 11.701 1.885.611.204.885.089 1.188-.396 2.049-3.271 4.111-6.532 6.277-9.969l11.975 7.478c-1.258 2.008-2.496 3.98-3.729 5.958-.736 1.179-1.432 2.384-2.203 3.538-.389.582-.191.975.232 1.346 3.859 3.376 6.855 7.399 9.102 12.003.107.224.76.358 1.09.27 3.473-.931 6.93-1.919 10.393-2.886.914-.254 1.832-.489 2.852-.759l3.711 13.611c-2.186.592-4.338 1.157-6.479 1.756-2.385.665-4.76 1.373-7.146 2.033-.639.177-.605.473-.627 1.098-.092 2.711-.32 5.42-.594 8.122-.299 2.966-1.348 5.742-2.379 8.512-.197.532-.121.732.336 1.02 3.319 2.078 6.622 4.187 10.028 6.348zm-27.678-21.464c-.131-9.289-7.645-17.376-17.609-17.637-9.777-.258-18.63 7.524-18.47 18.398.139 9.408 7.375 17.197 17.168 17.653 10.679.498 19.073-7.966 18.911-18.414z"/></svg>