<svg xmlns="http://www.w3.org/2000/svg" width="40" height="40" viewBox="0 0 40 40"><path d="M20 .493c-11.045 0-20 8.955-20 20 0 8.838 5.729 16.334 13.678 18.977 1 .184 1.365-.434 1.365-.961 0-.477-.019-2.053-.028-3.723-5.562 1.207-6.736-2.359-6.736-2.359-.91-2.311-2.221-2.924-2.221-2.924-1.817-1.24.139-1.217.139-1.217 2.008.139 3.064 2.061 3.064 2.061 1.785 3.057 4.684 2.174 5.82 1.66.182-1.289.699-2.172 1.27-2.67-4.439-.506-9.109-2.223-9.109-9.887 0-2.184.779-3.967 2.057-5.365-.204-.51-.893-2.543.198-5.297 0 0 1.677-.535 5.5 2.053 1.594-.447 3.304-.666 5.005-.674 1.7.008 3.411.229 5.008.676 3.814-2.59 5.494-2.051 5.494-2.051 1.094 2.754.406 4.787.201 5.293 1.281 1.398 2.055 3.182 2.055 5.365 0 7.684-4.678 9.375-9.133 9.871.721.621 1.357 1.836 1.357 3.701 0 2.674-.027 4.83-.027 5.488 0 .533.365 1.154 1.377.959C34.275 36.821 40 29.327 40 20.493c0-11.045-8.955-20-20-20z"/></svg>